G04 DesignSpark PCB Gerber Version 11.0 Build 5877*
G04 #@! TF.Part,Single*
G04 #@! TF.FilePolarity,Positive*
%FSLAX35Y35*%
%MOIN*%
G04 #@! TA.AperFunction,ViaDrill*
%ADD71C,0.01181*%
G04 #@! TA.AperFunction,ComponentDrill*
%ADD84C,0.03500*%
%ADD22C,0.03543*%
%ADD23C,0.03937*%
G04 #@! TA.AperFunction,MechanicalDrill*
%ADD85C,0.20079*%
G04 #@! TD.AperFunction*
X0Y0D02*
D02*
D71*
X51348Y66348D03*
X51965Y95098D03*
X52598Y37598D03*
X57104Y106348D03*
X64944Y106607D03*
Y128848D03*
X68848Y94875D03*
X71348Y37598D03*
Y66348D03*
X72852Y106348D03*
X96348Y128848D03*
X98848Y38848D03*
Y50098D03*
Y60098D03*
Y80098D03*
Y90098D03*
Y100098D03*
X111348Y38848D03*
Y50098D03*
Y60098D03*
Y80098D03*
Y90098D03*
Y100098D03*
Y128848D03*
X132598Y38848D03*
Y50098D03*
Y60098D03*
Y70098D03*
Y80098D03*
Y90098D03*
Y100098D03*
X135844Y105098D03*
X143848Y128848D03*
X143944Y109976D03*
X146348Y38848D03*
Y50098D03*
Y60098D03*
Y70098D03*
Y80098D03*
X146940Y90098D03*
Y100098D03*
X159545Y128848D03*
X166348Y38848D03*
Y60098D03*
Y68848D03*
Y93848D03*
X175098Y128848D03*
X175145Y111348D03*
X188848Y38848D03*
X190098Y60098D03*
Y68848D03*
Y93848D03*
D02*
D22*
X90098Y45098D03*
Y55098D03*
Y65098D03*
Y75098D03*
Y85098D03*
Y95098D03*
Y105098D03*
X150098Y75098D03*
Y85098D03*
Y95098D03*
Y105098D03*
D02*
D23*
Y45098D03*
Y55098D03*
Y65098D03*
D02*
D84*
X51348Y55098D03*
X71348D03*
D02*
D85*
X61043Y80519D03*
X179154D03*
X0Y0D02*
M02*
