G04 DesignSpark PCB Gerber Version 11.0 Build 5877*
G04 #@! TF.Part,Single*
G04 #@! TF.FileFunction,Copper,L2,Bot*
G04 #@! TF.FilePolarity,Positive*
%FSLAX35Y35*%
%MOIN*%
G04 #@! TA.AperFunction,SMDPad,CuDef*
%AMT80*0 Rounded Rectangle Pad at angle 0*4,1,56,-0.02953,-0.09843,0.02953,-0.09843,0.03190,-0.09828,0.03424,-0.09785,0.03651,-0.09715,0.03868,-0.09617,0.04071,-0.09494,0.04258,-0.09348,0.04426,-0.09180,0.04573,-0.08993,0.04696,-0.08789,0.04793,-0.08572,0.04864,-0.08345,0.04907,-0.08111,0.04921,-0.07874,0.04921,0.07874,0.04907,0.08111,0.04864,0.08345,0.04793,0.08572,0.04696,0.08789,0.04573,0.08993,0.04426,0.09180,0.04258,0.09348,0.04071,0.09494,0.03868,0.09617,0.03651,0.09715,0.03424,0.09785,0.03190,0.09828,0.02953,0.09843,-0.02953,0.09843,-0.03190,0.09828,-0.03424,0.09785,-0.03651,0.09715,-0.03868,0.09617,-0.04071,0.09494,-0.04258,0.09348,-0.04426,0.09180,-0.04573,0.08993,-0.04696,0.08789,-0.04793,0.08572,-0.04864,0.08345,-0.04907,0.08111,-0.04921,0.07874,-0.04921,-0.07874,-0.04907,-0.08111,-0.04864,-0.08345,-0.04793,-0.08572,-0.04696,-0.08789,-0.04573,-0.08993,-0.04426,-0.09180,-0.04258,-0.09348,-0.04071,-0.09494,-0.03868,-0.09617,-0.03651,-0.09715,-0.03424,-0.09785,-0.03190,-0.09828,-0.02953,-0.09843,0*%
%ADD80T80*%
G04 #@! TA.AperFunction,ComponentPad*
%AMT74*0 Offset Bullet Pad at angle 90*4,1,35,0.06693,-0.03150,0.06693,0.03150,0.00001,0.03150,-0.00309,0.03134,-0.00615,0.03089,-0.00915,0.03014,-0.01206,0.02909,-0.01485,0.02777,-0.01750,0.02618,-0.01998,0.02434,-0.02227,0.02226,-0.02435,0.01997,-0.02619,0.01749,-0.02777,0.01484,-0.02909,0.01204,-0.03013,0.00913,-0.03088,0.00614,-0.03133,0.00308,-0.03148,-0.00000,-0.03133,-0.00309,-0.03088,-0.00615,-0.03013,-0.00914,-0.02909,-0.01205,-0.02776,-0.01484,-0.02618,-0.01749,-0.02433,-0.01997,-0.02226,-0.02226,-0.01997,-0.02433,-0.01749,-0.02617,-0.01484,-0.02776,-0.01205,-0.02908,-0.00914,-0.03012,-0.00615,-0.03087,-0.00309,-0.03133,0.00001,-0.03150,0.06693,-0.03150,0*%
%ADD74T74*%
G04 #@! TD.AperFunction*
%ADD26C,0.00197*%
%ADD12C,0.00500*%
%ADD10C,0.01000*%
%ADD114C,0.02000*%
G04 #@! TA.AperFunction,ViaPad*
%ADD13C,0.02677*%
G04 #@! TD.AperFunction*
%ADD19C,0.06000*%
G04 #@! TA.AperFunction,ComponentPad*
%AMT73*0 Offset Bullet Pad at angle 270*4,1,35,-0.06693,0.03150,-0.06693,-0.03150,0.00001,-0.03150,0.00309,-0.03134,0.00615,-0.03089,0.00915,-0.03014,0.01206,-0.02909,0.01485,-0.02777,0.01750,-0.02618,0.01998,-0.02434,0.02227,-0.02226,0.02435,-0.01997,0.02619,-0.01749,0.02777,-0.01484,0.02909,-0.01204,0.03013,-0.00913,0.03088,-0.00614,0.03133,-0.00308,0.03148,0.00000,0.03133,0.00309,0.03088,0.00615,0.03013,0.00914,0.02909,0.01205,0.02776,0.01484,0.02618,0.01749,0.02433,0.01997,0.02226,0.02226,0.01997,0.02433,0.01749,0.02617,0.01484,0.02776,0.01205,0.02908,0.00914,0.03012,0.00615,0.03087,0.00309,0.03133,0.00001,0.03150,-0.06693,0.03150,0*%
%ADD73T73*%
G04 #@! TD.AperFunction*
X0Y0D02*
D02*
D10*
X57105Y108026D02*
G75*
G03*
X57831Y106767I2711J726D01*
G01*
G75*
G03*
X56378Y106768I-727J-419D01*
G01*
G75*
G03*
X57105Y108026I-1983J1985D01*
G01*
G36*
X57105Y108026D02*
G75*
G03*
X57831Y106767I2711J726D01*
G01*
G75*
G03*
X56378Y106768I-727J-419D01*
G01*
G75*
G03*
X57105Y108026I-1983J1985D01*
G01*
G37*
Y122672D02*
Y106349D01*
X57104Y106348D01*
X72853Y108026D02*
G75*
G03*
X73579Y106767I2711J726D01*
G01*
G75*
G03*
X72126Y106768I-727J-419D01*
G01*
G75*
G03*
X72853Y108026I-1983J1985D01*
G01*
G36*
X72853Y108026D02*
G75*
G03*
X73579Y106767I2711J726D01*
G01*
G75*
G03*
X72126Y106768I-727J-419D01*
G01*
G75*
G03*
X72853Y108026I-1983J1985D01*
G01*
G37*
Y122672D02*
Y106349D01*
X72852Y106348D01*
X75098Y53435D02*
Y41348D01*
X77598Y38848D01*
X96348D01*
Y47598D01*
X94020D01*
G75*
G02*
X90098Y40450I-3921J-2499D01*
G01*
X81906D01*
Y47598D01*
X80098D01*
Y62598D01*
X82303D01*
Y69352D01*
X82598D01*
Y70848D01*
X82303D01*
Y79352D01*
X82598D01*
Y80848D01*
X82303D01*
Y89352D01*
X82598D01*
Y90848D01*
X82303D01*
Y99352D01*
X82598D01*
Y100848D01*
X82303D01*
Y109352D01*
X90098D01*
G75*
G02*
X92415Y108665I0J-4252D01*
G01*
X93848Y110098D01*
Y111874D01*
G75*
G02*
X92174Y111330I-1674J2304D01*
G01*
X85028D01*
G75*
G02*
X82180Y114178I0J2848D01*
G01*
Y131130D01*
X78874D01*
G75*
G02*
X78877Y131002I-2612J-128D01*
G01*
Y114343D01*
G75*
G02*
X76262Y111728I-2615J0D01*
G01*
X75098D01*
Y107304D01*
G75*
G02*
Y105393I-2246J-956D01*
G01*
Y56762D01*
G75*
G02*
Y53435I-3750J-1663D01*
G01*
G36*
X75098Y53435D02*
Y41348D01*
X77598Y38848D01*
X96348D01*
Y47598D01*
X94020D01*
G75*
G02*
X90098Y40450I-3921J-2499D01*
G01*
X81906D01*
Y47598D01*
X80098D01*
Y62598D01*
X82303D01*
Y69352D01*
X82598D01*
Y70848D01*
X82303D01*
Y79352D01*
X82598D01*
Y80848D01*
X82303D01*
Y89352D01*
X82598D01*
Y90848D01*
X82303D01*
Y99352D01*
X82598D01*
Y100848D01*
X82303D01*
Y109352D01*
X90098D01*
G75*
G02*
X92415Y108665I0J-4252D01*
G01*
X93848Y110098D01*
Y111874D01*
G75*
G02*
X92174Y111330I-1674J2304D01*
G01*
X85028D01*
G75*
G02*
X82180Y114178I0J2848D01*
G01*
Y131130D01*
X78874D01*
G75*
G02*
X78877Y131002I-2612J-128D01*
G01*
Y114343D01*
G75*
G02*
X76262Y111728I-2615J0D01*
G01*
X75098D01*
Y107304D01*
G75*
G02*
Y105393I-2246J-956D01*
G01*
Y56762D01*
G75*
G02*
Y53435I-3750J-1663D01*
G01*
G37*
X83906Y55098D02*
X81906D01*
X84201Y70848D02*
Y69749D01*
X90098D01*
G75*
G02*
X94018Y62598I0J-4650D01*
G01*
X113848D01*
X130098Y78848D01*
Y113172D01*
G75*
G02*
X129822Y114343I2338J1171D01*
G01*
Y131002D01*
G75*
G02*
X129825Y131130I2615J-1D01*
G01*
X126519D01*
Y114178D01*
G75*
G02*
X123670Y111330I-2848J0D01*
G01*
X116524D01*
G75*
G02*
X113848Y113202I0J2848D01*
G01*
Y78848D01*
X106348Y71348D01*
X92100D01*
G75*
G02*
X90098Y70848I-2002J3751D01*
G01*
X84201D01*
G36*
X84201Y70848D02*
Y69749D01*
X90098D01*
G75*
G02*
X94018Y62598I0J-4650D01*
G01*
X113848D01*
X130098Y78848D01*
Y113172D01*
G75*
G02*
X129822Y114343I2338J1171D01*
G01*
Y131002D01*
G75*
G02*
X129825Y131130I2615J-1D01*
G01*
X126519D01*
Y114178D01*
G75*
G02*
X123670Y111330I-2848J0D01*
G01*
X116524D01*
G75*
G02*
X113848Y113202I0J2848D01*
G01*
Y78848D01*
X106348Y71348D01*
X92100D01*
G75*
G02*
X90098Y70848I-2002J3751D01*
G01*
X84201D01*
G37*
X90098Y42449D02*
Y40450D01*
Y52449D02*
Y50450D01*
Y57748D02*
Y59749D01*
X92748Y55098D02*
X94748D01*
X99781Y118105D02*
X97928Y116251D01*
X99781Y127240D02*
X97928Y129094D01*
X108917Y118105D02*
X110770Y116251D01*
X108917Y127240D02*
X110770Y129094D01*
X135845Y106776D02*
G75*
G03*
X136571Y105517I2711J726D01*
G01*
G75*
G03*
X135119Y105518I-727J-419D01*
G01*
G75*
G03*
X135845Y106776I-1983J1985D01*
G01*
G36*
X135845Y106776D02*
G75*
G03*
X136571Y105517I2711J726D01*
G01*
G75*
G03*
X135119Y105518I-727J-419D01*
G01*
G75*
G03*
X135845Y106776I-1983J1985D01*
G01*
G37*
Y122672D02*
Y105099D01*
X135844Y105098D01*
X143944Y109976D02*
X151593Y117625D01*
Y122672D01*
X145130Y111162D02*
G75*
G03*
X144755Y109759I2431J-1402D01*
G01*
G75*
G03*
X143727Y110787I-810J217D01*
G01*
G75*
G03*
X145130Y111162I1J2806D01*
G01*
G36*
X145130Y111162D02*
G75*
G03*
X144755Y109759I2431J-1402D01*
G01*
G75*
G03*
X143727Y110787I-810J217D01*
G01*
G75*
G03*
X145130Y111162I1J2806D01*
G01*
G37*
D02*
D12*
X56348Y32598D02*
G75*
G02*
X46348Y42598I0J10000D01*
G01*
Y133848D01*
X193848D01*
Y42598D01*
G75*
G02*
X183848Y32598I-10000J0D01*
G01*
X56348D01*
D02*
D13*
X51348Y66348D03*
X51965Y95098D03*
X52598Y37598D03*
X57104Y106348D03*
X64944Y106607D03*
Y128848D03*
X68848Y94875D03*
X71348Y37598D03*
Y66348D03*
X72852Y106348D03*
X96348Y128848D03*
X98848Y38848D03*
Y50098D03*
Y60098D03*
Y80098D03*
Y90098D03*
Y100098D03*
X111348Y38848D03*
Y50098D03*
Y60098D03*
Y80098D03*
Y90098D03*
Y100098D03*
Y128848D03*
X132598Y38848D03*
Y50098D03*
Y60098D03*
Y70098D03*
Y80098D03*
Y90098D03*
Y100098D03*
X135844Y105098D03*
X143848Y128848D03*
X143944Y109976D03*
X146348Y38848D03*
Y50098D03*
Y60098D03*
Y70098D03*
Y80098D03*
X146940Y90098D03*
Y100098D03*
X159545Y128848D03*
X166348Y38848D03*
Y60098D03*
Y68848D03*
Y93848D03*
X175098Y128848D03*
X175145Y111348D03*
X188848Y38848D03*
X190098Y60098D03*
Y68848D03*
Y93848D03*
D02*
D19*
X51348Y55098D03*
X71348D03*
D02*
D26*
X48665Y42598D02*
G75*
G03*
X56348Y34915I7683J0D01*
G01*
X183848D01*
G75*
G03*
X191531Y42598I0J7683D01*
G01*
Y74628D01*
G75*
G02*
X191163Y73948I-12242J6195D01*
G01*
G75*
G02*
X167413Y87698I-11875J6875D01*
G01*
G75*
G02*
X191531Y87019I11875J-6875D01*
G01*
Y131531D01*
X188607D01*
G75*
G02*
X188711Y130836I-2276J-696D01*
G01*
Y114509D01*
G75*
G02*
X186331Y112129I-2380J0D01*
G01*
X179847D01*
G75*
G02*
X177467Y114509I0J2380D01*
G01*
Y130836D01*
G75*
G02*
X177571Y131531I2380J0D01*
G01*
X172859D01*
G75*
G02*
X172963Y130836I-2276J-696D01*
G01*
Y114509D01*
G75*
G02*
X170583Y112129I-2380J0D01*
G01*
X164099D01*
G75*
G02*
X161719Y114509I0J2380D01*
G01*
Y130836D01*
G75*
G02*
X161823Y131531I2380J0D01*
G01*
X157111D01*
G75*
G02*
X157215Y130836I-2276J-696D01*
G01*
Y114509D01*
G75*
G02*
X154835Y112129I-2380J0D01*
G01*
X148351D01*
G75*
G02*
X147849Y112183I0J2381D01*
G01*
X146108Y110442D01*
G75*
G03*
X145983Y110050I1454J-682D01*
G01*
G75*
G02*
X145984Y109981I-2047J-70D01*
G01*
G75*
G02*
Y109976I-2051J-2D01*
G01*
G75*
G02*
X145929Y109507I-2040J0D01*
G01*
G75*
G02*
X145898Y109390I-1174J252D01*
G01*
G75*
G02*
X141905Y109976I-1953J586D01*
G01*
G75*
G02*
X143358Y111930I2039J0D01*
G01*
G75*
G02*
X143476Y111961I370J-1143D01*
G01*
G75*
G02*
X144019Y112015I470J-1985D01*
G01*
G75*
G03*
X144410Y112140I-290J1579D01*
G01*
X146077Y113807D01*
G75*
G02*
X145971Y114509I2274J702D01*
G01*
Y130836D01*
G75*
G02*
X146075Y131531I2380J0D01*
G01*
X141363D01*
G75*
G02*
X141467Y130836I-2276J-696D01*
G01*
Y114509D01*
G75*
G02*
X139087Y112129I-2380J0D01*
G01*
X137046D01*
X137045Y106959D01*
G75*
G03*
X137233Y106592I1512J542D01*
G01*
G75*
G02*
X137587Y106159I-1389J-1493D01*
G01*
G75*
G02*
X137635Y106076I-1017J-643D01*
G01*
G75*
G02*
X137884Y105099I-1790J-977D01*
G01*
Y105098D01*
G75*
G02*
X133805I-2039J0D01*
G01*
Y105099D01*
G75*
G02*
X134063Y106091I2039J0D01*
G01*
G75*
G02*
X134095Y106146I1059J-576D01*
G01*
G75*
G02*
X134459Y106594I1749J-1048D01*
G01*
G75*
G03*
X134644Y106954I-1322J908D01*
G01*
X134644Y112129D01*
X132603D01*
G75*
G02*
X131300Y112518I0J2380D01*
G01*
Y78848D01*
G75*
G02*
X130946Y77998I-1201J0D01*
G01*
X114699Y61750D01*
G75*
G02*
X113848Y61397I-851J848D01*
G01*
X94020D01*
G75*
G02*
X92835Y62391I-2J1201D01*
G01*
G75*
G02*
X90098Y61249I-2737J2709D01*
G01*
X82705D01*
Y61467D01*
G75*
G02*
X82303Y61397I-402J1132D01*
G01*
X81300D01*
Y48800D01*
X81906D01*
G75*
G02*
X82705Y48495I0J-1201D01*
G01*
Y48950D01*
X90098D01*
G75*
G02*
X92837Y47807I0J-3850D01*
G01*
G75*
G02*
X94021Y48800I1183J-208D01*
G01*
X96348D01*
G75*
G02*
X97550Y47598I0J-1201D01*
G01*
Y38848D01*
G75*
G02*
X96348Y37647I-1201J0D01*
G01*
X77598D01*
G75*
G02*
X76748Y38000I0J1201D01*
G01*
X74250Y40498D01*
G75*
G02*
X73897Y41348I848J851D01*
G01*
Y52415D01*
G75*
G02*
X67648Y55098I-2549J2683D01*
G01*
G75*
G02*
X73897Y57781I3701J0D01*
G01*
Y75676D01*
G75*
G02*
X48665Y75191I-12719J5148D01*
G01*
Y57647D01*
G75*
G02*
X55049Y55098I2683J-2549D01*
G01*
G75*
G02*
X48665Y52550I-3701J0D01*
G01*
Y42598D01*
X150098Y48950D02*
X157492D01*
Y41249D01*
X150098D01*
G75*
G02*
Y48950I0J3850D01*
G01*
Y58950D02*
X157492D01*
Y51249D01*
X150098D01*
G75*
G02*
Y58950I0J3850D01*
G01*
Y68950D02*
X157492D01*
Y61249D01*
X150098D01*
G75*
G02*
Y68950I0J3850D01*
G01*
Y78950D02*
X157492D01*
Y71249D01*
X150098D01*
G75*
G02*
Y78950I0J3850D01*
G01*
Y88950D02*
X157492D01*
Y81249D01*
X150098D01*
G75*
G02*
Y88950I0J3850D01*
G01*
Y98950D02*
X157492D01*
Y91249D01*
X150098D01*
G75*
G02*
Y98950I0J3850D01*
G01*
Y108950D02*
X157492D01*
Y101249D01*
X150098D01*
G75*
G02*
Y108950I0J3850D01*
G01*
X90098Y59348D02*
G75*
G02*
Y50852I0J-4248D01*
G01*
X82307D01*
Y59348D01*
X90098D01*
X48764Y45100D02*
G36*
X48764Y45100D02*
Y41373D01*
G75*
G03*
X55123Y35014I7585J1226D01*
G01*
X185074D01*
G75*
G03*
X191433Y41373I-1226J7585D01*
G01*
Y45100D01*
X157492D01*
Y41249D01*
X150098D01*
G75*
G02*
X146248Y45100I0J3850D01*
G01*
X97550D01*
Y38848D01*
G75*
G02*
X96348Y37647I-1201J0D01*
G01*
X77598D01*
G75*
G02*
X76748Y38000I0J1200D01*
G01*
X74250Y40498D01*
G75*
G02*
X73897Y41348I847J850D01*
G01*
Y41348D01*
Y45100D01*
X48764D01*
G37*
Y52450D02*
G36*
X48764Y52450D02*
Y45100D01*
X73897D01*
Y52415D01*
G75*
G02*
X67648Y55098I-2549J2683D01*
G01*
G75*
G02*
Y55100I3759J1D01*
G01*
X55049D01*
G75*
G02*
Y55098I-4511J0D01*
G01*
G75*
G02*
X48764Y52450I-3701J0D01*
G01*
G37*
X81300Y55100D02*
G36*
X81300Y55100D02*
Y48800D01*
X81906D01*
G75*
G02*
X82705Y48495I0J-1203D01*
G01*
Y48950D01*
X90098D01*
G75*
G02*
X92837Y47807I0J-3851D01*
G01*
G75*
G02*
X94021Y48800I1183J-209D01*
G01*
X96348D01*
G75*
G02*
X97550Y47598I0J-1201D01*
G01*
Y45100D01*
X146248D01*
G75*
G02*
X150098Y48950I3850J0D01*
G01*
X157492D01*
Y45100D01*
X191433D01*
Y55100D01*
X157492D01*
Y51249D01*
X150098D01*
G75*
G02*
X146248Y55100I0J3850D01*
G01*
X94346D01*
G75*
G02*
X90098Y50852I-4248J0D01*
G01*
X82307D01*
Y55100D01*
X81300D01*
G37*
X48764Y65100D02*
G36*
X48764Y65100D02*
Y57747D01*
G75*
G02*
X55049Y55100I2585J-2648D01*
G01*
X67648D01*
G75*
G02*
X73897Y57781I3701J-2D01*
G01*
Y65100D01*
X48764D01*
G37*
X81300Y61397D02*
G36*
X81300Y61397D02*
Y55100D01*
X82307D01*
Y59348D01*
X90098D01*
G75*
G02*
X94346Y55100I0J-4248D01*
G01*
X146248D01*
G75*
G02*
X150098Y58950I3850J0D01*
G01*
X157492D01*
Y55100D01*
X191433D01*
Y65100D01*
X157492D01*
Y61249D01*
X150098D01*
G75*
G02*
X146248Y65100I0J3850D01*
G01*
X118048D01*
X114699Y61750D01*
G75*
G02*
X113848Y61397I-850J847D01*
G01*
X94020D01*
G75*
G02*
X92835Y62391I-2J1200D01*
G01*
G75*
G02*
X90098Y61249I-2736J2708D01*
G01*
X82705D01*
Y61467D01*
G75*
G02*
X82303Y61397I-400J1119D01*
G01*
X81300D01*
G37*
X48764Y74978D02*
G36*
X48764Y74978D02*
Y65100D01*
X73897D01*
Y75100D01*
X73648D01*
G75*
G02*
X48764Y74978I-12471J5724D01*
G01*
G37*
X128048Y75100D02*
G36*
X128048Y75100D02*
X118048Y65100D01*
X146248D01*
G75*
G02*
X150098Y68950I3850J0D01*
G01*
X157492D01*
Y65100D01*
X191433D01*
Y74438D01*
G75*
G02*
X191163Y73948I-12319J6480D01*
G01*
G75*
G02*
X166817Y75100I-11875J6875D01*
G01*
X157492D01*
Y71249D01*
X150098D01*
G75*
G02*
X146248Y75100I0J3850D01*
G01*
X128048D01*
G37*
X73648D02*
G36*
X73648Y75100D02*
X73897D01*
Y75676D01*
G75*
G02*
X73648Y75100I-12722J5150D01*
G01*
G37*
X130946Y77998D02*
G36*
X130946Y77998D02*
X128048Y75100D01*
X146248D01*
G75*
G02*
X150098Y78950I3850J0D01*
G01*
X157492D01*
Y75100D01*
X166817D01*
G75*
G02*
X165567Y80824I12471J5724D01*
G01*
G75*
G02*
X166250Y85100I13721J1D01*
G01*
X157492D01*
Y81249D01*
X150098D01*
G75*
G02*
X146248Y85100I0J3850D01*
G01*
X131300D01*
Y78848D01*
Y78848D01*
G75*
G02*
X130946Y77998I-1200J0D01*
G01*
G37*
X131300Y95100D02*
G36*
X131300Y95100D02*
Y85100D01*
X146248D01*
G75*
G02*
X150098Y88950I3850J0D01*
G01*
X157492D01*
Y85100D01*
X166250D01*
G75*
G02*
X167413Y87698I13039J-4277D01*
G01*
G75*
G02*
X191433Y87209I11875J-6875D01*
G01*
Y95100D01*
X157492D01*
Y91249D01*
X150098D01*
G75*
G02*
X146248Y95100I0J3850D01*
G01*
X131300D01*
G37*
Y105100D02*
G36*
X131300Y105100D02*
Y95100D01*
X146248D01*
G75*
G02*
X150098Y98950I3850J0D01*
G01*
X157492D01*
Y95100D01*
X191433D01*
Y105100D01*
X157492D01*
Y101249D01*
X150098D01*
G75*
G02*
X146248Y105100I0J3850D01*
G01*
X137884D01*
G75*
G02*
Y105099I-2051J0D01*
G01*
Y105098D01*
G75*
G02*
X133805I-2039J0D01*
G01*
Y105099D01*
G75*
G02*
Y105100I2051J0D01*
G01*
X131300D01*
G37*
Y112518D02*
G36*
X131300Y112518D02*
Y105100D01*
X133805D01*
Y105100D01*
G75*
G02*
X134063Y106091I2035J0D01*
G01*
G75*
G02*
X134095Y106146I1210J-663D01*
G01*
G75*
G02*
X134459Y106594I1757J-1055D01*
G01*
G75*
G03*
X134644Y106954I-1325J909D01*
G01*
X134644Y112129D01*
X132603D01*
G75*
G02*
X131300Y112518I0J2382D01*
G01*
G37*
X137046Y112129D02*
G36*
X137046Y112129D02*
X137045Y106959D01*
G75*
G03*
X137233Y106592I1501J537D01*
G01*
G75*
G02*
X137587Y106159I-1396J-1499D01*
G01*
G75*
G02*
X137635Y106076I-995J-631D01*
G01*
G75*
G02*
X137884Y105100I-1793J-978D01*
G01*
X146248D01*
G75*
G02*
X150098Y108950I3850J0D01*
G01*
X157492D01*
Y105100D01*
X191433D01*
Y131433D01*
X188635D01*
G75*
G02*
X188711Y130837I-2293J-595D01*
G01*
G75*
G02*
Y130836I-2256J-1D01*
G01*
Y114509D01*
G75*
G02*
X186331Y112129I-2380J0D01*
G01*
X179847D01*
G75*
G02*
X177467Y114509I0J2380D01*
G01*
Y130836D01*
G75*
G02*
Y130837I2256J1D01*
G01*
G75*
G02*
X177543Y131433I2369J0D01*
G01*
X172887D01*
G75*
G02*
X172963Y130837I-2293J-595D01*
G01*
G75*
G02*
Y130836I-2256J-1D01*
G01*
Y114509D01*
G75*
G02*
X170583Y112129I-2380J0D01*
G01*
X164099D01*
G75*
G02*
X161719Y114509I0J2380D01*
G01*
Y130836D01*
G75*
G02*
Y130837I2256J1D01*
G01*
G75*
G02*
X161795Y131433I2369J0D01*
G01*
X157139D01*
G75*
G02*
X157215Y130837I-2293J-595D01*
G01*
G75*
G02*
Y130836I-2256J-1D01*
G01*
Y114509D01*
G75*
G02*
X154835Y112129I-2380J0D01*
G01*
X148351D01*
G75*
G02*
X147849Y112183I-1J2374D01*
G01*
X146108Y110442D01*
G75*
G03*
X145983Y110050I1472J-688D01*
G01*
G75*
G02*
X145984Y109981I-3033J-86D01*
G01*
Y109976D01*
G75*
G02*
X145929Y109507I-2048J1D01*
G01*
G75*
G02*
X145898Y109390I-1113J236D01*
G01*
G75*
G02*
X141905Y109976I-1953J586D01*
G01*
G75*
G02*
X143358Y111930I2039J0D01*
G01*
G75*
G02*
X143476Y111961I353J-1081D01*
G01*
G75*
G02*
X144019Y112015I471J-1999D01*
G01*
G75*
G03*
X144410Y112140I-296J1598D01*
G01*
X146077Y113807D01*
G75*
G02*
X145971Y114509I2284J704D01*
G01*
Y130836D01*
G75*
G02*
Y130837I2256J1D01*
G01*
G75*
G02*
X146047Y131433I2369J0D01*
G01*
X141391D01*
G75*
G02*
X141467Y130837I-2293J-595D01*
G01*
G75*
G02*
Y130836I-2256J-1D01*
G01*
Y114509D01*
G75*
G02*
X139087Y112129I-2380J0D01*
G01*
X137046D01*
G37*
X48665Y131531D02*
Y86456D01*
G75*
G02*
X49303Y87698I12515J-5633D01*
G01*
G75*
G02*
X73897Y85971I11875J-6875D01*
G01*
Y104597D01*
G75*
G02*
X70813Y106348I-1045J1751D01*
G01*
Y106349D01*
G75*
G02*
X71071Y107341I2039J0D01*
G01*
G75*
G02*
X71103Y107396I1059J-576D01*
G01*
G75*
G02*
X71467Y107844I1749J-1048D01*
G01*
G75*
G03*
X71652Y108203I-1319J907D01*
G01*
X71652Y112129D01*
X69611D01*
G75*
G02*
X67231Y114509I0J2380D01*
G01*
Y130836D01*
G75*
G02*
X67335Y131531I2380J0D01*
G01*
X62623D01*
G75*
G02*
X62727Y130836I-2276J-696D01*
G01*
Y114509D01*
G75*
G02*
X60347Y112129I-2380J0D01*
G01*
X58306D01*
X58305Y108209D01*
G75*
G03*
X58493Y107842I1510J543D01*
G01*
G75*
G02*
X58846Y107409I-1389J-1493D01*
G01*
G75*
G02*
X58894Y107326I-1017J-643D01*
G01*
G75*
G02*
X59144Y106349I-1790J-977D01*
G01*
Y106348D01*
G75*
G02*
X55065I-2039J0D01*
G01*
Y106349D01*
G75*
G02*
X55323Y107341I2039J0D01*
G01*
G75*
G02*
X55355Y107396I1059J-576D01*
G01*
G75*
G02*
X55719Y107844I1749J-1048D01*
G01*
G75*
G03*
X55904Y108203I-1319J907D01*
G01*
X55904Y112129D01*
X53863D01*
G75*
G02*
X51483Y114509I0J2380D01*
G01*
Y130836D01*
G75*
G02*
X51587Y131531I2380J0D01*
G01*
X48665D01*
G36*
X48665Y131531D02*
Y86456D01*
G75*
G02*
X49303Y87698I12515J-5633D01*
G01*
G75*
G02*
X73897Y85971I11875J-6875D01*
G01*
Y104597D01*
G75*
G02*
X70813Y106348I-1045J1751D01*
G01*
Y106349D01*
G75*
G02*
X71071Y107341I2039J0D01*
G01*
G75*
G02*
X71103Y107396I1059J-576D01*
G01*
G75*
G02*
X71467Y107844I1749J-1048D01*
G01*
G75*
G03*
X71652Y108203I-1319J907D01*
G01*
X71652Y112129D01*
X69611D01*
G75*
G02*
X67231Y114509I0J2380D01*
G01*
Y130836D01*
G75*
G02*
X67335Y131531I2380J0D01*
G01*
X62623D01*
G75*
G02*
X62727Y130836I-2276J-696D01*
G01*
Y114509D01*
G75*
G02*
X60347Y112129I-2380J0D01*
G01*
X58306D01*
X58305Y108209D01*
G75*
G03*
X58493Y107842I1510J543D01*
G01*
G75*
G02*
X58846Y107409I-1389J-1493D01*
G01*
G75*
G02*
X58894Y107326I-1017J-643D01*
G01*
G75*
G02*
X59144Y106349I-1790J-977D01*
G01*
Y106348D01*
G75*
G02*
X55065I-2039J0D01*
G01*
Y106349D01*
G75*
G02*
X55323Y107341I2039J0D01*
G01*
G75*
G02*
X55355Y107396I1059J-576D01*
G01*
G75*
G02*
X55719Y107844I1749J-1048D01*
G01*
G75*
G03*
X55904Y108203I-1319J907D01*
G01*
X55904Y112129D01*
X53863D01*
G75*
G02*
X51483Y114509I0J2380D01*
G01*
Y130836D01*
G75*
G02*
X51587Y131531I2380J0D01*
G01*
X48665D01*
G37*
X83800Y79352D02*
G75*
G02*
X83730Y78950I-1201J0D01*
G01*
X90098D01*
G75*
G02*
X92983Y72550I0J-3850D01*
G01*
X105851D01*
X112647Y79346D01*
Y113202D01*
G75*
G02*
X114493Y114215I1201J0D01*
G01*
G75*
G02*
X114475Y114509I2361J293D01*
G01*
Y130836D01*
G75*
G02*
X114579Y131531I2380J0D01*
G01*
X110315D01*
G75*
G02*
X110369Y131001I-2558J-530D01*
G01*
Y114344D01*
G75*
G02*
X107756Y111731I-2613J0D01*
G01*
X100942D01*
G75*
G02*
X98330Y114344I0J2613D01*
G01*
Y131001D01*
G75*
G02*
X98384Y131531I2613J1D01*
G01*
X94119D01*
G75*
G02*
X94223Y130836I-2276J-696D01*
G01*
Y114509D01*
G75*
G02*
X93739Y113070I-2380J0D01*
G01*
G75*
G02*
X95050Y111874I109J-1196D01*
G01*
Y110098D01*
G75*
G02*
X94696Y109248I-1201J0D01*
G01*
X93267Y107818D01*
G75*
G02*
X93009Y107621I-852J846D01*
G01*
G75*
G02*
X90098Y101249I-2910J-2521D01*
G01*
X83730D01*
G75*
G02*
X83800Y100848I-1132J-402D01*
G01*
Y99352D01*
G75*
G02*
X83730Y98950I-1201J0D01*
G01*
X90098D01*
G75*
G02*
Y91249I0J-3850D01*
G01*
X83730D01*
G75*
G02*
X83800Y90848I-1132J-402D01*
G01*
Y89352D01*
G75*
G02*
X83730Y88950I-1201J0D01*
G01*
X90098D01*
G75*
G02*
Y81249I0J-3850D01*
G01*
X83730D01*
G75*
G02*
X83800Y80848I-1132J-402D01*
G01*
Y79352D01*
G36*
X83800Y79352D02*
G75*
G02*
X83730Y78950I-1201J0D01*
G01*
X90098D01*
G75*
G02*
X92983Y72550I0J-3850D01*
G01*
X105851D01*
X112647Y79346D01*
Y113202D01*
G75*
G02*
X114493Y114215I1201J0D01*
G01*
G75*
G02*
X114475Y114509I2361J293D01*
G01*
Y130836D01*
G75*
G02*
X114579Y131531I2380J0D01*
G01*
X110315D01*
G75*
G02*
X110369Y131001I-2558J-530D01*
G01*
Y114344D01*
G75*
G02*
X107756Y111731I-2613J0D01*
G01*
X100942D01*
G75*
G02*
X98330Y114344I0J2613D01*
G01*
Y131001D01*
G75*
G02*
X98384Y131531I2613J1D01*
G01*
X94119D01*
G75*
G02*
X94223Y130836I-2276J-696D01*
G01*
Y114509D01*
G75*
G02*
X93739Y113070I-2380J0D01*
G01*
G75*
G02*
X95050Y111874I109J-1196D01*
G01*
Y110098D01*
G75*
G02*
X94696Y109248I-1201J0D01*
G01*
X93267Y107818D01*
G75*
G02*
X93009Y107621I-852J846D01*
G01*
G75*
G02*
X90098Y101249I-2910J-2521D01*
G01*
X83730D01*
G75*
G02*
X83800Y100848I-1132J-402D01*
G01*
Y99352D01*
G75*
G02*
X83730Y98950I-1201J0D01*
G01*
X90098D01*
G75*
G02*
Y91249I0J-3850D01*
G01*
X83730D01*
G75*
G02*
X83800Y90848I-1132J-402D01*
G01*
Y89352D01*
G75*
G02*
X83730Y88950I-1201J0D01*
G01*
X90098D01*
G75*
G02*
Y81249I0J-3850D01*
G01*
X83730D01*
G75*
G02*
X83800Y80848I-1132J-402D01*
G01*
Y79352D01*
G37*
D02*
D73*
X90098Y45098D03*
Y55098D03*
Y65098D03*
Y75098D03*
Y85098D03*
Y95098D03*
Y105098D03*
D02*
D74*
X150098Y45098D03*
Y55098D03*
Y65098D03*
Y75098D03*
Y85098D03*
Y95098D03*
Y105098D03*
D02*
D80*
X57105Y122672D03*
X72853D03*
X88601D03*
X104349D03*
X120097D03*
X135845D03*
X151593D03*
X167341D03*
X183089D03*
D02*
D114*
X83906Y45098D02*
X81906D01*
X84180Y122672D02*
X82180D01*
X88601Y113330D02*
Y111330D01*
X90098Y67748D02*
Y69749D01*
X92748Y45098D02*
X94748D01*
X92748Y65098D02*
X94748D01*
X120097Y113330D02*
Y111330D01*
X124519Y122672D02*
X126519D01*
X0Y0D02*
M02*
