G04 DesignSpark PCB Gerber Version 11.0 Build 5877*
G04 #@! TF.Part,Single*
G04 #@! TF.FileFunction,Copper,L1,Top*
G04 #@! TF.FilePolarity,Positive*
%FSLAX35Y35*%
%MOIN*%
G04 #@! TA.AperFunction,SMDPad,CuDef*
%AMT115*0 Rounded Rectangle Pad at angle 0*4,1,56,-0.02953,-0.04921,0.02953,-0.04921,0.03190,-0.04907,0.03424,-0.04864,0.03651,-0.04793,0.03868,-0.04696,0.04071,-0.04573,0.04258,-0.04426,0.04426,-0.04258,0.04573,-0.04071,0.04696,-0.03868,0.04793,-0.03651,0.04864,-0.03424,0.04907,-0.03190,0.04921,-0.02953,0.04921,0.02953,0.04907,0.03190,0.04864,0.03424,0.04793,0.03651,0.04696,0.03868,0.04573,0.04071,0.04426,0.04258,0.04258,0.04426,0.04071,0.04573,0.03868,0.04696,0.03651,0.04793,0.03424,0.04864,0.03190,0.04907,0.02953,0.04921,-0.02953,0.04921,-0.03190,0.04907,-0.03424,0.04864,-0.03651,0.04793,-0.03868,0.04696,-0.04071,0.04573,-0.04258,0.04426,-0.04426,0.04258,-0.04573,0.04071,-0.04696,0.03868,-0.04793,0.03651,-0.04864,0.03424,-0.04907,0.03190,-0.04921,0.02953,-0.04921,-0.02953,-0.04907,-0.03190,-0.04864,-0.03424,-0.04793,-0.03651,-0.04696,-0.03868,-0.04573,-0.04071,-0.04426,-0.04258,-0.04258,-0.04426,-0.04071,-0.04573,-0.03868,-0.04696,-0.03651,-0.04793,-0.03424,-0.04864,-0.03190,-0.04907,-0.02953,-0.04921,0*%
%ADD115T115*%
G04 #@! TA.AperFunction,ComponentPad*
%AMT74*0 Offset Bullet Pad at angle 90*4,1,35,0.06693,-0.03150,0.06693,0.03150,0.00001,0.03150,-0.00309,0.03134,-0.00615,0.03089,-0.00915,0.03014,-0.01206,0.02909,-0.01485,0.02777,-0.01750,0.02618,-0.01998,0.02434,-0.02227,0.02226,-0.02435,0.01997,-0.02619,0.01749,-0.02777,0.01484,-0.02909,0.01204,-0.03013,0.00913,-0.03088,0.00614,-0.03133,0.00308,-0.03148,-0.00000,-0.03133,-0.00309,-0.03088,-0.00615,-0.03013,-0.00914,-0.02909,-0.01205,-0.02776,-0.01484,-0.02618,-0.01749,-0.02433,-0.01997,-0.02226,-0.02226,-0.01997,-0.02433,-0.01749,-0.02617,-0.01484,-0.02776,-0.01205,-0.02908,-0.00914,-0.03012,-0.00615,-0.03087,-0.00309,-0.03133,0.00001,-0.03150,0.06693,-0.03150,0*%
%ADD74T74*%
G04 #@! TD.AperFunction*
%ADD26C,0.00197*%
%ADD12C,0.00500*%
%ADD29C,0.00787*%
%ADD10C,0.01000*%
%ADD28C,0.01500*%
G04 #@! TA.AperFunction,SMDPad,CuDef*
%ADD75R,0.04291X0.03937*%
G04 #@! TA.AperFunction,ViaPad*
%ADD13C,0.02677*%
G04 #@! TD.AperFunction*
%ADD19C,0.06000*%
G04 #@! TA.AperFunction,ComponentPad*
%AMT73*0 Offset Bullet Pad at angle 270*4,1,35,-0.06693,0.03150,-0.06693,-0.03150,0.00001,-0.03150,0.00309,-0.03134,0.00615,-0.03089,0.00915,-0.03014,0.01206,-0.02909,0.01485,-0.02777,0.01750,-0.02618,0.01998,-0.02434,0.02227,-0.02226,0.02435,-0.01997,0.02619,-0.01749,0.02777,-0.01484,0.02909,-0.01204,0.03013,-0.00913,0.03088,-0.00614,0.03133,-0.00308,0.03148,0.00000,0.03133,0.00309,0.03088,0.00615,0.03013,0.00914,0.02909,0.01205,0.02776,0.01484,0.02618,0.01749,0.02433,0.01997,0.02226,0.02226,0.01997,0.02433,0.01749,0.02617,0.01484,0.02776,0.01205,0.02908,0.00914,0.03012,0.00615,0.03087,0.00309,0.03133,0.00001,0.03150,-0.06693,0.03150,0*%
%ADD73T73*%
G04 #@! TD.AperFunction*
X0Y0D02*
D02*
D10*
X51348Y50098D02*
G75*
G03*
X49183Y53848I-8080J-2165D01*
G01*
G75*
G03*
X53513I2165J1250D01*
G01*
G75*
G03*
X51348Y50098I5915J-5915D01*
G01*
G36*
X51348Y50098D02*
G75*
G03*
X49183Y53848I-8080J-2165D01*
G01*
G75*
G03*
X53513I2165J1250D01*
G01*
G75*
G03*
X51348Y50098I5915J-5915D01*
G01*
G37*
Y55098D02*
Y46348D01*
X52598Y45098D01*
X57848D01*
X54884Y58634D02*
G75*
G03*
X53763Y54452I7244J-4183D01*
G01*
G75*
G03*
X50702Y57513I-2415J647D01*
G01*
G75*
G03*
X54884Y58634I0J8365D01*
G01*
G36*
X54884Y58634D02*
G75*
G03*
X53763Y54452I7244J-4183D01*
G01*
G75*
G03*
X50702Y57513I-2415J647D01*
G01*
G75*
G03*
X54884Y58634I0J8365D01*
G01*
G37*
X57104Y104671D02*
G75*
G03*
X56378Y105929I-2710J-726D01*
G01*
G75*
G03*
X57831I726J419D01*
G01*
G75*
G03*
X57104Y104671I1984J-1984D01*
G01*
G36*
X57104Y104671D02*
G75*
G03*
X56378Y105929I-2710J-726D01*
G01*
G75*
G03*
X57831I726J419D01*
G01*
G75*
G03*
X57104Y104671I1984J-1984D01*
G01*
G37*
X72852D02*
G75*
G03*
X72126Y105929I-2710J-726D01*
G01*
G75*
G03*
X73579I726J419D01*
G01*
G75*
G03*
X72852Y104671I1984J-1984D01*
G01*
G36*
X72852Y104671D02*
G75*
G03*
X72126Y105929I-2710J-726D01*
G01*
G75*
G03*
X73579I726J419D01*
G01*
G75*
G03*
X72852Y104671I1984J-1984D01*
G01*
G37*
X80098Y85098D02*
X90098D01*
X80098D02*
Y67598D01*
X72598Y60098D01*
X56348D01*
X51348Y55098D01*
X80098Y85098D02*
Y87598D01*
X70098Y97598D01*
X60098D01*
X57104Y100593D01*
Y106348D01*
X83906Y55098D02*
X81906D01*
X90098Y52449D02*
Y50450D01*
Y57748D02*
Y59749D01*
Y75098D02*
X95098D01*
X96348Y76348D01*
Y87598D01*
X93848Y90098D01*
X80098D01*
X72852Y97344D01*
Y106348D01*
X90098Y95098D02*
X139446D01*
X143944Y99597D01*
Y109976D01*
X90098Y105098D02*
X135844D01*
X92748Y55098D02*
X94748D01*
X115676Y127472D02*
X113676D01*
X120097Y123051D02*
Y121051D01*
X124519Y127472D02*
X126519D01*
X134167Y105098D02*
G75*
G03*
X135425Y105825I-726J2710D01*
G01*
G75*
G03*
Y104372I419J-726D01*
G01*
G75*
G03*
X134167Y105098I-1984J-1984D01*
G01*
G36*
X134167Y105098D02*
G75*
G03*
X135425Y105825I-726J2710D01*
G01*
G75*
G03*
Y104372I419J-726D01*
G01*
G75*
G03*
X134167Y105098I-1984J-1984D01*
G01*
G37*
X143944Y108299D02*
G75*
G03*
X143218Y109557I-2710J-726D01*
G01*
G75*
G03*
X144671I726J419D01*
G01*
G75*
G03*
X143944Y108299I1984J-1984D01*
G01*
G36*
X143944Y108299D02*
G75*
G03*
X143218Y109557I-2710J-726D01*
G01*
G75*
G03*
X144671I726J419D01*
G01*
G75*
G03*
X143944Y108299I1984J-1984D01*
G01*
G37*
D02*
D12*
X56348Y32598D02*
G75*
G02*
X46348Y42598I0J10000D01*
G01*
Y133848D01*
X193848D01*
Y42598D01*
G75*
G02*
X183848Y32598I-10000J0D01*
G01*
X56348D01*
D02*
D13*
X51348Y66348D03*
X51965Y95098D03*
X52598Y37598D03*
X57104Y106348D03*
X64944Y106607D03*
Y128848D03*
X68848Y94875D03*
X71348Y37598D03*
Y66348D03*
X72852Y106348D03*
X96348Y128848D03*
X98848Y38848D03*
Y50098D03*
Y60098D03*
Y80098D03*
Y90098D03*
Y100098D03*
X111348Y38848D03*
Y50098D03*
Y60098D03*
Y80098D03*
Y90098D03*
Y100098D03*
Y128848D03*
X132598Y38848D03*
Y50098D03*
Y60098D03*
Y70098D03*
Y80098D03*
Y90098D03*
Y100098D03*
X135844Y105098D03*
X143848Y128848D03*
X143944Y109976D03*
X146348Y38848D03*
Y50098D03*
Y60098D03*
Y70098D03*
Y80098D03*
X146940Y90098D03*
Y100098D03*
X159545Y128848D03*
X166348Y38848D03*
Y60098D03*
Y68848D03*
Y93848D03*
X175098Y128848D03*
X175145Y111348D03*
X188848Y38848D03*
X190098Y60098D03*
Y68848D03*
Y93848D03*
D02*
D19*
X51348Y55098D03*
X71348D03*
D02*
D26*
X48665Y42598D02*
G75*
G03*
X56348Y34915I7683J0D01*
G01*
X183848D01*
G75*
G03*
X191531Y42598I0J7683D01*
G01*
Y74528D01*
G75*
G02*
X191163Y73848I-12242J6195D01*
G01*
G75*
G02*
X167413Y87598I-11875J6875D01*
G01*
G75*
G02*
X191531Y86919I11875J-6875D01*
G01*
Y113607D01*
X184907D01*
G75*
G02*
X183809Y114706I0J1098D01*
G01*
Y130560D01*
G75*
G02*
X184394Y131531I1098J0D01*
G01*
X126034D01*
G75*
G02*
X126117Y130880I-2530J-652D01*
G01*
Y124065D01*
G75*
G02*
X123504Y121453I-2613J0D01*
G01*
X116690D01*
G75*
G02*
X114078Y124065I0J2613D01*
G01*
Y130880D01*
G75*
G02*
X114160Y131531I2613J0D01*
G01*
X48665D01*
Y86356D01*
G75*
G02*
X49303Y87598I12515J-5633D01*
G01*
G75*
G02*
X73053Y73848I11875J-6875D01*
G01*
G75*
G02*
X48665Y75091I-11875J6875D01*
G01*
Y57647D01*
G75*
G02*
X51695Y58783I2683J-2549D01*
G01*
G75*
G03*
X54149Y59598I-993J7095D01*
G01*
X55498Y60948D01*
G75*
G02*
X56348Y61300I850J-848D01*
G01*
X72101D01*
X78898Y68096D01*
Y87101D01*
X69601Y96398D01*
X60101D01*
G75*
G02*
X59249Y96749I-3J1201D01*
G01*
X56255Y99743D01*
G75*
G02*
X55904Y100593I849J849D01*
G01*
G75*
G02*
Y100595I321J2D01*
G01*
Y104491D01*
G75*
G03*
X55717Y104853I-1510J-546D01*
G01*
G75*
G02*
X55348Y105313I1387J1495D01*
G01*
G75*
G02*
X55328Y105346I1031J617D01*
G01*
G75*
G02*
X55065Y106348I1776J1002D01*
G01*
G75*
G02*
X59144I2039J0D01*
G01*
Y106348D01*
G75*
G02*
X58490Y104852I-2039J0D01*
G01*
G75*
G03*
X58305Y104491I1326J-908D01*
G01*
Y101090D01*
X60596Y98799D01*
X70096D01*
G75*
G02*
X70948Y98448I3J-1201D01*
G01*
X71652Y97743D01*
Y104491D01*
G75*
G03*
X71465Y104853I-1510J-546D01*
G01*
G75*
G02*
X71096Y105313I1387J1495D01*
G01*
G75*
G02*
X71076Y105346I1031J617D01*
G01*
G75*
G02*
X70813Y106348I1776J1002D01*
G01*
G75*
G02*
X74892I2039J0D01*
G01*
Y106348D01*
G75*
G02*
X74238Y104852I-2039J0D01*
G01*
G75*
G03*
X74053Y104491I1326J-908D01*
G01*
Y97842D01*
X80596Y91299D01*
X82705D01*
Y98950D01*
X90098D01*
G75*
G02*
X93757Y96299I0J-3850D01*
G01*
X138948D01*
X142744Y100094D01*
Y108119D01*
G75*
G03*
X142557Y108481I-1510J-546D01*
G01*
G75*
G02*
X142188Y108941I1387J1495D01*
G01*
G75*
G02*
X142169Y108974I1031J617D01*
G01*
G75*
G02*
X141905Y109976I1776J1002D01*
G01*
G75*
G02*
X145984I2039J0D01*
G01*
Y109976D01*
G75*
G02*
X145330Y108480I-2039J0D01*
G01*
G75*
G03*
X145145Y108120I1325J-908D01*
G01*
Y99600D01*
G75*
G02*
Y99598I-321J-1D01*
G01*
G75*
G02*
Y99597I-485J0D01*
G01*
G75*
G02*
X144794Y98748I-1201J0D01*
G01*
X140295Y94249D01*
G75*
G02*
X139443Y93898I-849J849D01*
G01*
X93756D01*
G75*
G02*
X90717Y91299I-3658J1202D01*
G01*
X93848D01*
G75*
G02*
X94700Y90946I0J-1201D01*
G01*
X97196Y88450D01*
G75*
G02*
X97549Y87598I-847J-851D01*
G01*
Y76348D01*
G75*
G02*
X97196Y75497I-1201J0D01*
G01*
X95950Y74251D01*
G75*
G02*
X95098Y73898I-851J847D01*
G01*
X93756D01*
G75*
G02*
X90098Y71249I-3658J1202D01*
G01*
X82705D01*
Y78950D01*
X90098D01*
G75*
G02*
X93757Y76299I0J-3850D01*
G01*
X94601D01*
X95148Y76846D01*
Y87101D01*
X93351Y88898D01*
X90731D01*
G75*
G02*
X90098Y81249I-633J-3798D01*
G01*
X82705D01*
Y83898D01*
X81299D01*
Y67601D01*
G75*
G02*
Y67599I-321J-1D01*
G01*
G75*
G02*
Y67598I-480J0D01*
G01*
G75*
G02*
X80948Y66749I-1201J0D01*
G01*
X73644Y59447D01*
G75*
G03*
X73646Y59448I-2332J5446D01*
G01*
X80322Y66124D01*
G75*
G02*
X81350Y66549I1026J-1026D01*
G01*
X82705D01*
Y68950D01*
X90098D01*
G75*
G02*
Y61249I0J-3850D01*
G01*
X82705D01*
Y63648D01*
X81949D01*
X75698Y57396D01*
G75*
G03*
X75037Y55400I5352J-2880D01*
G01*
G75*
G02*
X75049Y55099I-3690J-300D01*
G01*
G75*
G02*
Y55098I-3759J0D01*
G01*
Y55098D01*
G75*
G02*
X73744Y52278I-3700J0D01*
G01*
G75*
G03*
X72799Y50396I4884J-3630D01*
G01*
Y46348D01*
G75*
G02*
X72374Y45322I-1451J0D01*
G01*
X71124Y44072D01*
G75*
G02*
X70097Y43648I-1026J1026D01*
G01*
X67695D01*
Y42430D01*
X62002D01*
Y47769D01*
X67695D01*
Y46549D01*
X69498D01*
X69898Y46949D01*
Y50396D01*
G75*
G03*
X68952Y52278I-5824J-1748D01*
G01*
G75*
G02*
X71650Y58787I2396J2820D01*
G01*
G75*
G03*
X72220Y58899I-883J6013D01*
G01*
X56846D01*
X55850Y57902D01*
G75*
G03*
X55033Y55446I6283J-3453D01*
G01*
G75*
G02*
X55049Y55100I-3685J-345D01*
G01*
G75*
G02*
Y55098I-3889J-1D01*
G01*
G75*
G02*
X53708Y52248I-3701J0D01*
G01*
G75*
G03*
X52549Y49936I5714J-4311D01*
G01*
Y46846D01*
X53096Y46299D01*
X55002D01*
Y47769D01*
X60695D01*
Y42430D01*
X55002D01*
Y43898D01*
X52598D01*
G75*
G02*
X51747Y44251I0J1201D01*
G01*
X50501Y45497D01*
G75*
G02*
X50148Y46348I847J851D01*
G01*
Y49934D01*
G75*
G03*
X48987Y52249I-6880J-2002D01*
G01*
G75*
G02*
X48665Y52550I2368J2854D01*
G01*
Y42598D01*
X150098Y48950D02*
X157492D01*
Y41249D01*
X150098D01*
G75*
G02*
Y48950I0J3850D01*
G01*
Y58950D02*
X157492D01*
Y51249D01*
X150098D01*
G75*
G02*
Y58950I0J3850D01*
G01*
Y68950D02*
X157492D01*
Y61249D01*
X150098D01*
G75*
G02*
Y68950I0J3850D01*
G01*
Y78950D02*
X157492D01*
Y71249D01*
X150098D01*
G75*
G02*
Y78950I0J3850D01*
G01*
Y88950D02*
X157492D01*
Y81249D01*
X150098D01*
G75*
G02*
Y88950I0J3850D01*
G01*
Y98950D02*
X157492D01*
Y91249D01*
X150098D01*
G75*
G02*
Y98950I0J3850D01*
G01*
Y108950D02*
X157492D01*
Y101249D01*
X150098D01*
G75*
G02*
Y108950I0J3850D01*
G01*
X134842Y106874D02*
G75*
G02*
X137884Y105098I1002J-1776D01*
G01*
G75*
G02*
X134842Y103322I-2039J0D01*
G01*
G75*
G02*
X134809Y103342I583J1050D01*
G01*
G75*
G02*
X134349Y103711I1035J1757D01*
G01*
G75*
G03*
X133987Y103898I-909J-1324D01*
G01*
X93756D01*
G75*
G02*
X90098Y101249I-3658J1202D01*
G01*
X82705D01*
Y108950D01*
X90098D01*
G75*
G02*
X93757Y106299I0J-3850D01*
G01*
X133987D01*
G75*
G03*
X134349Y106485I-546J1510D01*
G01*
G75*
G02*
X134809Y106855I1495J-1387D01*
G01*
G75*
G02*
X134842Y106874I617J-1031D01*
G01*
X90098Y59348D02*
G75*
G02*
Y50852I0J-4248D01*
G01*
X82307D01*
Y59348D01*
X90098D01*
Y48950D02*
G75*
G02*
Y41249I0J-3850D01*
G01*
X82705D01*
Y48950D01*
X90098D01*
X48764Y45100D02*
G36*
X48764Y45100D02*
Y41353D01*
G75*
G03*
X55103Y35014I7584J1245D01*
G01*
X185094D01*
G75*
G03*
X191433Y41353I-1245J7584D01*
G01*
Y45100D01*
X157492D01*
Y41249D01*
X150098D01*
G75*
G02*
X146248Y45100I0J3850D01*
G01*
X93949D01*
G75*
G02*
X90098Y41249I-3850J0D01*
G01*
X82705D01*
Y45100D01*
X72147D01*
X71122Y44075D01*
G75*
G02*
X70097Y43650I-1025J1026D01*
G01*
X67695D01*
G75*
G03*
X67692Y43648I0J-3D01*
G01*
Y42433D01*
X62005D01*
Y45100D01*
X60692D01*
Y42433D01*
X55005D01*
Y43898D01*
Y43898D01*
G75*
G03*
X55002Y43901I-3J0D01*
G01*
X52598D01*
G75*
G02*
X51749Y44253I-2J1196D01*
G01*
X50903Y45100D01*
X48764D01*
G37*
Y52454D02*
G36*
X48764Y52454D02*
Y45100D01*
X50903D01*
X50504Y45500D01*
G75*
G02*
X50150Y46348I842J848D01*
G01*
Y49934D01*
G75*
G03*
X48989Y52251I-6876J-1996D01*
G01*
G75*
G02*
X48764Y52454I2307J2794D01*
G01*
G37*
X52546Y46846D02*
G36*
X52546Y46846D02*
Y46845D01*
G75*
G03*
X52547Y46843I2J0D01*
G01*
X53093Y46297D01*
G75*
G03*
X53096Y46296I2J2D01*
G01*
X55002D01*
G75*
G03*
X55005Y46299I0J3D01*
G01*
Y46299D01*
Y47766D01*
X60692D01*
Y45100D01*
X62005D01*
Y47766D01*
X67692D01*
Y46549D01*
Y46549D01*
G75*
G03*
X67695Y46546I3J0D01*
G01*
X69498D01*
G75*
G03*
X69500Y46547I0J2D01*
G01*
X69900Y46947D01*
G75*
G03*
X69901Y46949I-2J2D01*
G01*
Y46949D01*
Y50396D01*
G75*
G03*
X68955Y52280I-5820J-1743D01*
G01*
G75*
G02*
X67651Y55098I2394J2819D01*
G01*
G75*
G02*
Y55100I3383J1D01*
G01*
X55046D01*
Y55098D01*
G75*
G02*
X53706Y52250I-3696J-1D01*
G01*
G75*
G03*
X52546Y49937I5721J-4317D01*
G01*
Y46846D01*
G37*
X72372Y45325D02*
G36*
X72372Y45325D02*
X72147Y45100D01*
X82705D01*
Y48950D01*
X90098D01*
G75*
G02*
X93949Y45100I0J-3850D01*
G01*
X146248D01*
G75*
G02*
X150098Y48950I3850J0D01*
G01*
X157492D01*
Y45100D01*
X191433D01*
Y55100D01*
X157492D01*
Y51249D01*
X150098D01*
G75*
G02*
X146248Y55100I0J3850D01*
G01*
X94346D01*
G75*
G02*
X90098Y50852I-4248J0D01*
G01*
X82307D01*
Y55100D01*
X75046D01*
Y55099D01*
Y55098D01*
G75*
G02*
Y55097I-3470J0D01*
G01*
G75*
G02*
X73742Y52280I-3695J0D01*
G01*
G75*
G03*
X72796Y50398I4894J-3638D01*
G01*
Y46348D01*
G75*
G02*
X72372Y45325I-1448J0D01*
G01*
G37*
X48764Y65100D02*
G36*
X48764Y65100D02*
Y57743D01*
G75*
G02*
X51694Y58780I2585J-2644D01*
G01*
G75*
G03*
X54150Y59595I-992J7096D01*
G01*
X55501Y60946D01*
G75*
G02*
X56348Y61297I848J-846D01*
G01*
X72101D01*
G75*
G03*
X72104Y61298I0J2D01*
G01*
X75906Y65100D01*
X48764D01*
G37*
X55046Y55100D02*
G36*
X55046Y55100D02*
Y55100D01*
X67651D01*
G75*
G02*
X71649Y58784I3698J-1D01*
G01*
G75*
G03*
X72220Y58896I-904J6136D01*
G01*
G75*
G03*
X72223Y58899I0J3D01*
G01*
G75*
G03*
X72220Y58902I-3J0D01*
G01*
X56846D01*
G75*
G03*
X56844Y58901I0J-2D01*
G01*
X55847Y57904D01*
G75*
G03*
X55030Y55446I6283J-3453D01*
G01*
G75*
G02*
X55046Y55100I-3793J-346D01*
G01*
G37*
X73641Y59449D02*
G36*
X73641Y59449D02*
G75*
G03*
X73641Y59447I2J-2D01*
G01*
G75*
G03*
X73645Y59444I3J0D01*
G01*
G75*
G03*
X73648Y59445I-3J10D01*
G01*
X79302Y65100D01*
X79293D01*
X73641Y59449D01*
G37*
X75034Y55400D02*
G36*
X75034Y55400D02*
G75*
G02*
X75046Y55100I-3830J-306D01*
G01*
X82307D01*
Y59348D01*
X90098D01*
G75*
G02*
X94346Y55100I0J-4248D01*
G01*
X146248D01*
G75*
G02*
X150098Y58950I3850J0D01*
G01*
X157492D01*
Y55100D01*
X191433D01*
Y65100D01*
X157492D01*
Y61249D01*
X150098D01*
G75*
G02*
X146248Y65100I0J3850D01*
G01*
X93946D01*
G75*
G02*
X90098Y61252I-3847J0D01*
G01*
X82708D01*
Y63648D01*
Y63648D01*
G75*
G03*
X82705Y63651I-3J0D01*
G01*
X81949D01*
G75*
G03*
X81947Y63650I0J-2D01*
G01*
X75696Y57399D01*
G75*
G03*
X75034Y55400I5351J-2881D01*
G01*
G37*
X48764Y74887D02*
G36*
X48764Y74887D02*
Y65100D01*
X75906D01*
X78900Y68094D01*
G75*
G03*
X78901Y68096I-2J2D01*
G01*
Y68096D01*
Y75100D01*
X73690D01*
G75*
G02*
X73050Y73850I-12513J5624D01*
G01*
G75*
G02*
X48764Y74887I-11872J6873D01*
G01*
G37*
X79293Y65100D02*
G36*
X79293Y65100D02*
X79302D01*
X80325Y66122D01*
G75*
G02*
X81350Y66546I1024J-1024D01*
G01*
X82705D01*
G75*
G03*
X82708Y66549I0J3D01*
G01*
Y66549D01*
Y68947D01*
X90098D01*
G75*
G02*
X93946Y65100I0J-3847D01*
G01*
X146248D01*
G75*
G02*
X150098Y68950I3850J0D01*
G01*
X157492D01*
Y65100D01*
X191433D01*
Y74344D01*
G75*
G02*
X191161Y73850I-12322J6478D01*
G01*
G75*
G02*
X166776Y75100I-11872J6874D01*
G01*
X157492D01*
Y71249D01*
X150098D01*
G75*
G02*
X146248Y75100I0J3850D01*
G01*
X96794D01*
X95947Y74254D01*
G75*
G02*
X95098Y73901I-849J846D01*
G01*
X93756D01*
G75*
G03*
X93754Y73898I0J-2D01*
G01*
G75*
G02*
X90098Y71252I-3654J1200D01*
G01*
X82708D01*
Y75100D01*
X81296D01*
Y67601D01*
Y67598D01*
Y67598D01*
G75*
G02*
X80946Y66752I-1197J0D01*
G01*
X79293Y65100D01*
G37*
X74896Y80724D02*
G36*
X74896Y80724D02*
G75*
G02*
X73690Y75100I-13719J0D01*
G01*
X78901D01*
Y85100D01*
X74180D01*
G75*
G02*
X74896Y80724I-13002J-4376D01*
G01*
G37*
X81296Y83898D02*
G36*
X81296Y83898D02*
Y75100D01*
X82708D01*
Y78947D01*
X90098D01*
G75*
G02*
X93754Y76298I0J-3847D01*
G01*
Y76298D01*
G75*
G03*
X93757Y76296I3J0D01*
G01*
X94601D01*
G75*
G03*
X94604Y76297I0J2D01*
G01*
X95150Y76843D01*
G75*
G03*
X95151Y76845I-2J2D01*
G01*
Y76846D01*
Y85100D01*
X93946D01*
G75*
G02*
X90098Y81252I-3847J0D01*
G01*
X82708D01*
Y83898D01*
Y83898D01*
G75*
G03*
X82705Y83901I-3J0D01*
G01*
X81299D01*
G75*
G03*
X81296Y83898I0J-3D01*
G01*
Y83898D01*
G37*
X97194Y75500D02*
G36*
X97194Y75500D02*
X96794Y75100D01*
X146248D01*
G75*
G02*
X150098Y78950I3850J0D01*
G01*
X157492D01*
Y75100D01*
X166776D01*
G75*
G02*
X165570Y80724I12513J5624D01*
G01*
G75*
G02*
X166287Y85100I13718J0D01*
G01*
X157492D01*
Y81249D01*
X150098D01*
G75*
G02*
X146248Y85100I0J3850D01*
G01*
X97546D01*
Y76348D01*
G75*
G02*
Y76347I-1410J0D01*
G01*
G75*
G02*
X97194Y75500I-1196J0D01*
G01*
G37*
X48764Y95100D02*
G36*
X48764Y95100D02*
Y86561D01*
G75*
G02*
X49306Y87597I12295J-5778D01*
G01*
G75*
G02*
X74180Y85100I11872J-6873D01*
G01*
X78901D01*
Y87101D01*
G75*
G03*
Y87102I-3J0D01*
G01*
G75*
G03*
X78900Y87104I-2J0D01*
G01*
X70904Y95100D01*
X48764D01*
G37*
X76791D02*
G36*
X76791Y95100D02*
X80593Y91297D01*
G75*
G03*
X80596Y91296I2J2D01*
G01*
X82705D01*
G75*
G03*
X82708Y91299I0J3D01*
G01*
Y91299D01*
Y95100D01*
X76791D01*
G37*
X90717Y91302D02*
G36*
X90717Y91302D02*
G75*
G03*
X90714Y91299I0J-3D01*
G01*
G75*
G03*
X90717Y91296I3J0D01*
G01*
X93848D01*
G75*
G02*
X94698Y90944I2J-1196D01*
G01*
X97193Y88447D01*
G75*
G02*
X97546Y87598I-846J-849D01*
G01*
Y85100D01*
X146248D01*
G75*
G02*
X150098Y88950I3850J0D01*
G01*
X157492D01*
Y85100D01*
X166287D01*
G75*
G02*
X167416Y87597I13002J-4377D01*
G01*
G75*
G02*
X191433Y87102I11872J-6873D01*
G01*
Y95100D01*
X157492D01*
Y91249D01*
X150098D01*
G75*
G02*
X146248Y95100I0J3850D01*
G01*
X141141D01*
X140293Y94252D01*
G75*
G02*
X139443Y93901I-846J846D01*
G01*
X93756D01*
G75*
G03*
X93754Y93898I0J-2D01*
G01*
G75*
G02*
X90717Y91302I-3655J1201D01*
G01*
G37*
X90728Y88898D02*
G36*
X90728Y88898D02*
G75*
G03*
X90731Y88894I3J0D01*
G01*
G75*
G02*
X93946Y85100I-632J-3795D01*
G01*
X95151D01*
Y87101D01*
G75*
G03*
Y87102I-3J0D01*
G01*
G75*
G03*
X95150Y87104I-2J0D01*
G01*
X93354Y88900D01*
G75*
G03*
X93351Y88901I-2J-2D01*
G01*
X90731D01*
G75*
G03*
X90728Y88898I0J-3D01*
G01*
G37*
X48764Y105100D02*
G36*
X48764Y105100D02*
Y95100D01*
X70904D01*
X69604Y96400D01*
G75*
G03*
X69601Y96401I-2J-2D01*
G01*
X60101D01*
G75*
G02*
X59251Y96751I-3J1198D01*
G01*
X56257Y99746D01*
G75*
G02*
X55907Y100593I849J848D01*
G01*
Y100595D01*
Y104491D01*
Y104492D01*
G75*
G03*
X55720Y104855I-1510J-548D01*
G01*
G75*
G02*
X55496Y105100I1389J1496D01*
G01*
X48764D01*
G37*
X58302Y101090D02*
G36*
X58302Y101090D02*
Y101089D01*
G75*
G03*
X58303Y101087I2J0D01*
G01*
X60593Y98797D01*
G75*
G03*
X60596Y98796I2J2D01*
G01*
X70096D01*
G75*
G02*
X70946Y98446I3J-1198D01*
G01*
X71649Y97741D01*
G75*
G03*
X71655Y97743I2J2D01*
G01*
Y97743D01*
Y104491D01*
Y104492D01*
G75*
G03*
X71468Y104855I-1510J-548D01*
G01*
G75*
G02*
X71244Y105100I1389J1496D01*
G01*
X58713D01*
G75*
G02*
X58488Y104854I-1607J1248D01*
G01*
G75*
G03*
X58302Y104493I1324J-910D01*
G01*
Y104491D01*
Y101090D01*
G37*
X74050Y97842D02*
G36*
X74050Y97842D02*
Y97841D01*
G75*
G03*
X74051Y97839I2J0D01*
G01*
X76791Y95100D01*
X82708D01*
Y98947D01*
X90098D01*
G75*
G02*
X93754Y96298I0J-3847D01*
G01*
Y96298D01*
G75*
G03*
X93757Y96296I3J0D01*
G01*
X138948D01*
G75*
G03*
X138951Y96297I0J2D01*
G01*
X142746Y100092D01*
G75*
G03*
X142747Y100094I-2J2D01*
G01*
Y100094D01*
Y105100D01*
X137884D01*
G75*
G02*
Y105098I-2051J0D01*
G01*
G75*
G02*
X134842Y103322I-2039J0D01*
G01*
G75*
G02*
X134809Y103342I330J611D01*
G01*
G75*
G02*
X134349Y103711I1028J1748D01*
G01*
G75*
G03*
X133987Y103898I-902J-1309D01*
G01*
X93756D01*
G75*
G02*
X90098Y101249I-3658J1202D01*
G01*
X82705D01*
Y105100D01*
X74461D01*
G75*
G02*
X74236Y104854I-1607J1248D01*
G01*
G75*
G03*
X74050Y104493I1324J-910D01*
G01*
Y104491D01*
Y97842D01*
G37*
X144792Y98750D02*
G36*
X144792Y98750D02*
X141141Y95100D01*
X146248D01*
G75*
G02*
X150098Y98950I3850J0D01*
G01*
X157492D01*
Y95100D01*
X191433D01*
Y105100D01*
X157492D01*
Y101249D01*
X150098D01*
G75*
G02*
X146248Y105100I0J3850D01*
G01*
X145142D01*
Y99600D01*
Y99597D01*
Y99597D01*
G75*
G02*
X144792Y98750I-1197J0D01*
G01*
G37*
X48764Y131433D02*
G36*
X48764Y131433D02*
Y105100D01*
X55496D01*
G75*
G02*
X55350Y105314I1613J1249D01*
G01*
G75*
G02*
X55331Y105348I591J363D01*
G01*
G75*
G02*
X55068Y106348I1776J1002D01*
G01*
G75*
G02*
X59141I2036J0D01*
G01*
G75*
G02*
X58713Y105100I-2035J-1D01*
G01*
X71244D01*
G75*
G02*
X71098Y105314I1613J1249D01*
G01*
G75*
G02*
X71079Y105348I591J363D01*
G01*
G75*
G02*
X70816Y106348I1776J1002D01*
G01*
G75*
G02*
X74889I2036J0D01*
G01*
G75*
G02*
X74461Y105100I-2035J-1D01*
G01*
X82705D01*
Y108950D01*
X90098D01*
G75*
G02*
X93757Y106299I0J-3850D01*
G01*
X133987D01*
G75*
G03*
X134349Y106485I-539J1496D01*
G01*
G75*
G02*
X134809Y106855I1487J-1378D01*
G01*
G75*
G02*
X134842Y106874I363J-591D01*
G01*
G75*
G02*
X137884Y105100I1002J-1776D01*
G01*
X142747D01*
Y108119D01*
Y108120D01*
G75*
G03*
X142560Y108483I-1510J-548D01*
G01*
G75*
G02*
X142191Y108942I1389J1495D01*
G01*
G75*
G02*
X142171Y108976I591J363D01*
G01*
G75*
G02*
X141908Y109976I1776J1002D01*
G01*
G75*
G02*
X145981I2036J0D01*
G01*
G75*
G02*
X145328Y108482I-2035J-1D01*
G01*
G75*
G03*
X145142Y108121I1311J-904D01*
G01*
Y108120D01*
Y105100D01*
X146248D01*
G75*
G02*
X150098Y108950I3850J0D01*
G01*
X157492D01*
Y105100D01*
X191433D01*
Y113611D01*
X184907D01*
G75*
G02*
X183812Y114706I0J1095D01*
G01*
Y130560D01*
Y130561D01*
G75*
G02*
X184246Y131433I1094J0D01*
G01*
X126054D01*
G75*
G02*
X126114Y130880I-2558J-555D01*
G01*
Y124065D01*
Y124065D01*
G75*
G02*
X123504Y121456I-2609J0D01*
G01*
X116690D01*
G75*
G02*
X114081Y124065I0J2609D01*
G01*
Y124065D01*
Y130880D01*
G75*
G02*
Y130883I2615J2D01*
G01*
G75*
G02*
X114140Y131433I2593J0D01*
G01*
X48764D01*
G37*
D02*
D28*
X71348Y50598D02*
G75*
G03*
X69400Y53974I-7272J-1948D01*
G01*
G75*
G03*
X73297I1948J1125D01*
G01*
G75*
G03*
X71348Y50598I5324J-5323D01*
G01*
G36*
X71348Y50598D02*
G75*
G03*
X69400Y53974I-7272J-1948D01*
G01*
G75*
G03*
X73297I1948J1125D01*
G01*
G75*
G03*
X71348Y50598I5324J-5323D01*
G01*
G37*
Y55098D02*
Y46348D01*
X70098Y45098D01*
X64848D01*
X74530Y58280D02*
G75*
G03*
X73522Y54516I6520J-3764D01*
G01*
G75*
G03*
X70766Y57272I-2173J582D01*
G01*
G75*
G03*
X74530Y58280I0J7528D01*
G01*
G36*
X74530Y58280D02*
G75*
G03*
X73522Y54516I6520J-3764D01*
G01*
G75*
G03*
X70766Y57272I-2173J582D01*
G01*
G75*
G03*
X74530Y58280I0J7528D01*
G01*
G37*
X90098Y65098D02*
X81348D01*
X71348Y55098D01*
D02*
D29*
X190404Y115098D02*
X186624D01*
Y117303D01*
X186939Y117933D01*
X187569Y118248D01*
X188199Y117933D01*
X188514Y117303D01*
Y115098D01*
Y117303D02*
X190404Y118248D01*
X190089Y121398D02*
X190404Y121083D01*
Y120453D01*
Y119823D01*
X190089Y119193D01*
X189459Y118878D01*
X188514D01*
X188199Y119193D01*
X187884Y119823D01*
Y120453D01*
X188199Y121083D01*
X188514Y121398D01*
X188829D01*
X189144Y121083D01*
X189459Y120453D01*
Y119823D01*
X189144Y119193D01*
X188829Y118878D01*
X187884Y122002D02*
X190404Y123262D01*
X187884Y124522D01*
X190404Y125442D02*
X190089Y125757D01*
X189774Y125442D01*
X190089Y125127D01*
X190404Y125442D01*
X188514Y128591D02*
X188829Y129221D01*
X189459Y129536D01*
X190089Y129221D01*
X190404Y128591D01*
Y126387D01*
X186624D01*
Y128591D01*
X186939Y129221D01*
X187569Y129536D01*
X188199Y129221D01*
X188514Y128591D01*
Y126387D01*
D02*
D73*
X90098Y45098D03*
Y55098D03*
Y65098D03*
Y75098D03*
Y85098D03*
Y95098D03*
Y105098D03*
D02*
D74*
X150098Y45098D03*
Y55098D03*
Y65098D03*
Y75098D03*
Y85098D03*
Y95098D03*
Y105098D03*
D02*
D75*
X57848Y45098D03*
X64848D03*
D02*
D115*
X120097Y127472D03*
X0Y0D02*
M02*
