G05
M48
;#@! TF.GenerationSoftware,DesignSpark,DesignSpark PCB,11.0.5875
;#@! TF.CreationDate,2025-06-21T19:09:42--9:00*
;#@! TF.FileFunction,Plated,1,2,PTH
;FILE_FORMAT=3:5
;TYPE=PLATED
INCH,TZ
FMAT,2
T1C000.01181
T2C000.03500
T3C000.03543
T4C000.03937
T5C000.20079
%
T001
X51348Y66348
X51965Y95098
X52598Y37598
X57104Y106348
X64944Y106607
X64944Y128848
X68848Y94875
X71348Y37598
X71348Y66348
X72852Y106348
X96348Y128848
X98848Y38848
X98848Y50098
X98848Y60098
X98848Y80098
X98848Y90098
X98848Y100098
X111348Y38848
X111348Y50098
X111348Y60098
X111348Y80098
X111348Y90098
X111348Y100098
X111348Y128848
X132598Y38848
X132598Y50098
X132598Y60098
X132598Y70098
X132598Y80098
X132598Y90098
X132598Y100098
X135844Y105098
X143848Y128848
X143944Y109976
X146348Y38848
X146348Y50098
X146348Y60098
X146348Y70098
X146348Y80098
X146940Y90098
X146940Y100098
X159545Y128848
X166348Y38848
X166348Y60098
X166348Y68848
X166348Y93848
X175098Y128848
X175145Y111348
X188848Y38848
X190098Y60098
X190098Y68848
X190098Y93848
T002
X51348Y55098
X71348Y55098
T003
X90098Y45098
X90098Y55098
X90098Y65098
X90098Y75098
X90098Y85098
X90098Y95098
X90098Y105098
X150098Y75098
X150098Y85098
X150098Y95098
X150098Y105098
T004
X150098Y45098
X150098Y55098
X150098Y65098
T005
X61043Y80519
X179154Y80519
M30
