G04 DesignSpark PCB Gerber Version 11.0 Build 5877*
G04 #@! TF.Part,Single*
G04 #@! TF.FileFunction,Legend,Top*
G04 #@! TF.FilePolarity,Positive*
%FSLAX35Y35*%
%MOIN*%
%ADD26C,0.00197*%
%ADD12C,0.00500*%
%ADD27C,0.00984*%
G04 #@! TD.AperFunction*
X0Y0D02*
D02*
D12*
X55198Y42448D02*
Y47748D01*
X67498D01*
Y42448D01*
X55198D01*
X56348Y32598D02*
G75*
G02*
X46348Y42598I0J10000D01*
G01*
Y133848D01*
X193848D01*
Y42598D01*
G75*
G02*
X183848Y32598I-10000J0D01*
G01*
X56348D01*
Y55098D02*
X55098D01*
X66348D02*
X67598D01*
X66348Y57598D02*
X56348D01*
Y52598D01*
X66348D01*
Y57598D01*
X68848Y37286D02*
Y41036D01*
X71036D01*
X71661Y40724D01*
X71974Y40098D01*
X71661Y39474D01*
X71036Y39161D01*
X68848D01*
X71036D02*
X71974Y37286D01*
X74474D02*
X75724D01*
X75098D02*
Y41036D01*
X74474Y40411D01*
X68848Y47286D02*
Y51036D01*
X71036D01*
X71661Y50724D01*
X71974Y50098D01*
X71661Y49474D01*
X71036Y49161D01*
X68848D01*
X71036D02*
X71974Y47286D01*
X76348D02*
X73848D01*
X76036Y49474D01*
X76348Y50098D01*
X76036Y50724D01*
X75411Y51036D01*
X74474D01*
X73848Y50724D01*
X81848Y49098D02*
X82161Y49411D01*
Y49880D01*
X81848Y50192D01*
X81223Y50348D01*
X80911D01*
X80286Y50192D01*
X79973Y49880D01*
Y49098D01*
X78411D01*
Y50348D01*
Y50648D02*
X82161Y51430D01*
X78411Y52211D01*
X80598Y60366D02*
Y60835D01*
X80911D01*
X81536Y60678D01*
X81848Y60522D01*
X82161Y60210D01*
Y59897D01*
X81848Y59585D01*
X81536Y59428D01*
X80911Y59272D01*
X79661D01*
X79036Y59428D01*
X78723Y59585D01*
X78411Y59897D01*
Y60210D01*
X78723Y60522D01*
X79036Y60678D01*
X79661Y60835D01*
X81848Y69020D02*
X82161Y69333D01*
Y69646D01*
X81848Y69958D01*
X81223Y70114D01*
X80598Y69958D01*
X80286Y69646D01*
Y69333D01*
Y69646D02*
X79973Y69958D01*
X79348Y70114D01*
X78723Y69958D01*
X78411Y69646D01*
Y69333D01*
X78723Y69020D01*
X78411Y70420D02*
X82161Y71202D01*
X78411Y71983D01*
X82161Y79044D02*
Y79669D01*
Y79357D02*
X78411D01*
X79036Y79044D01*
X81848Y80125D02*
X82161Y80438D01*
Y80750D01*
X81848Y81063D01*
X81223Y81219D01*
X79348D01*
X78723Y81063D01*
X78411Y80750D01*
Y80438D01*
X78723Y80125D01*
X79348Y79969D01*
X81223D01*
X81848Y80125D01*
X78723Y81063D01*
X82161Y89861D02*
X81848Y90174D01*
X81223Y90486D01*
X80286Y90643D01*
X79348D01*
X78723Y90486D01*
X78411Y90174D01*
Y89861D01*
X78723Y89549D01*
X79348Y89393D01*
X79973Y89549D01*
X80286Y89861D01*
Y90174D01*
X79973Y90486D01*
X79348Y90643D01*
X80286Y99285D02*
Y99598D01*
X79973Y99910D01*
X79348Y100066D01*
X78723Y99910D01*
X78411Y99598D01*
Y99285D01*
X78723Y98972D01*
X79348Y98816D01*
X79973Y98972D01*
X80286Y99285D01*
X80598Y98972D01*
X81223Y98816D01*
X81848Y98972D01*
X82161Y99285D01*
Y99598D01*
X81848Y99910D01*
X81223Y100066D01*
X80598Y99910D01*
X80286Y99598D01*
X82161Y109365D02*
X78411Y110615D01*
Y109365D01*
X86598Y32598D02*
X102098D01*
Y25098D01*
X138098D01*
Y32598D01*
X153598D01*
G75*
G03*
X157098Y36098I0J3500D01*
G01*
Y114098D01*
G75*
G03*
X153598Y117598I-3500J0D01*
G01*
X86598D01*
G75*
G03*
X83098Y114098I0J-3500D01*
G01*
Y36098D01*
G75*
G03*
X86598Y32598I3500J0D01*
G01*
X99949Y41210D02*
X100261Y41522D01*
X100574Y42147D01*
X100261Y42772D01*
X99949Y43085D01*
X96824D01*
Y43710D01*
Y43085D02*
Y41835D01*
Y46210D02*
X100574D01*
Y49335D01*
X99949Y54335D02*
X100261Y54022D01*
X100574Y53397D01*
Y52460D01*
X100261Y51835D01*
X99949Y51522D01*
X99324Y51210D01*
X98074D01*
X97449Y51522D01*
X97136Y51835D01*
X96824Y52460D01*
Y53397D01*
X97136Y54022D01*
X97449Y54335D01*
X99949Y56210D02*
X100261Y56522D01*
X100574Y57147D01*
X100261Y57772D01*
X99949Y58085D01*
X96824D01*
Y58710D01*
Y58085D02*
Y56835D01*
Y61210D02*
X100574D01*
Y64335D01*
X99949Y69335D02*
X100261Y69022D01*
X100574Y68397D01*
Y67460D01*
X100261Y66835D01*
X99949Y66522D01*
X99324Y66210D01*
X98074D01*
X97449Y66522D01*
X97136Y66835D01*
X96824Y67460D01*
Y68397D01*
X97136Y69022D01*
X97449Y69335D01*
X99949Y71210D02*
X100261Y71522D01*
X100574Y72147D01*
X100261Y72772D01*
X99949Y73085D01*
X96824D01*
Y73710D01*
Y73085D02*
Y71835D01*
Y76210D02*
X100574D01*
Y79335D01*
X99949Y84335D02*
X100261Y84022D01*
X100574Y83397D01*
Y82460D01*
X100261Y81835D01*
X99949Y81522D01*
X99324Y81210D01*
X98074D01*
X97449Y81522D01*
X97136Y81835D01*
X96824Y82460D01*
Y83397D01*
X97136Y84022D01*
X97449Y84335D01*
X116862Y115787D02*
Y112975D01*
X117175Y112350D01*
X117800Y112037D01*
X119050D01*
X119675Y112350D01*
X119987Y112975D01*
Y115787D01*
X122487Y112037D02*
X123737D01*
X123112D02*
Y115787D01*
X122487Y115162D01*
X120384Y42598D02*
X121122Y42968D01*
X121491Y43706D01*
Y45182D01*
X121122Y45920D01*
X120384Y46289D01*
X119646Y45920D01*
X119276Y45182D01*
Y43706D01*
X118907Y42968D01*
X118169Y42598D01*
X117431Y42968D01*
X117062Y43706D01*
Y45182D01*
X117431Y45920D01*
X118169Y46289D01*
X121122Y51457D02*
X121491Y51088D01*
Y50350D01*
Y49611D01*
X121122Y48873D01*
X120384Y48504D01*
X119276D01*
X118907Y48873D01*
X118538Y49611D01*
Y50350D01*
X118907Y51088D01*
X119276Y51457D01*
X119646D01*
X120015Y51088D01*
X120384Y50350D01*
Y49611D01*
X120015Y48873D01*
X119646Y48504D01*
X121122Y57362D02*
X121491Y56993D01*
Y56255D01*
Y55517D01*
X121122Y54779D01*
X120384Y54409D01*
X119276D01*
X118907Y54779D01*
X118538Y55517D01*
Y56255D01*
X118907Y56993D01*
X119276Y57362D01*
X119646D01*
X120015Y56993D01*
X120384Y56255D01*
Y55517D01*
X120015Y54779D01*
X119646Y54409D01*
X121122Y63268D02*
X121491Y62899D01*
Y62161D01*
Y61422D01*
X121122Y60684D01*
X120384Y60315D01*
X119276D01*
X118907Y60684D01*
X118538Y61422D01*
Y62161D01*
X118907Y62899D01*
X119276Y63268D01*
X119646D01*
X120015Y62899D01*
X120384Y62161D01*
Y61422D01*
X120015Y60684D01*
X119646Y60315D01*
Y69173D02*
X118907Y68804D01*
X118538Y68066D01*
Y67328D01*
X118907Y66590D01*
X119646Y66220D01*
X120384D01*
X121122Y66590D01*
X121491Y67328D01*
Y68066D01*
X121122Y68804D01*
X120384Y69173D01*
X121491D02*
X117062D01*
X128578Y42598D02*
X124148Y46289D01*
Y42598D02*
X128578Y46289D01*
Y49611D02*
Y51088D01*
Y50350D02*
X124148D01*
Y49611D02*
Y51088D01*
X128578Y54409D02*
X124148Y56255D01*
X128578Y58100D01*
X126732Y55148D02*
Y57362D01*
X127101Y60315D02*
X125625D01*
X124887Y60684D01*
X124518Y61053D01*
X124148Y61791D01*
Y62530D01*
X124518Y63268D01*
X124887Y63637D01*
X125625Y64006D01*
X127101D01*
X127839Y63637D01*
X128209Y63268D01*
X128578Y62530D01*
Y61791D01*
X128209Y61053D01*
X127839Y60684D01*
X127101Y60315D01*
X128578Y72126D02*
X124148D01*
Y74710D01*
X124518Y75448D01*
X125256Y75817D01*
X125994Y75448D01*
X126363Y74710D01*
Y72126D01*
Y74710D02*
X128578Y75817D01*
Y78031D02*
X124148D01*
Y80615D01*
X124518Y81354D01*
X125256Y81722D01*
X125994Y81354D01*
X126363Y80615D01*
Y78031D01*
X128578Y86890D02*
Y83937D01*
X125994Y86521D01*
X125256Y86890D01*
X124518Y86521D01*
X124148Y85783D01*
Y84675D01*
X124518Y83937D01*
X128209Y90212D02*
X128578Y90950D01*
Y91688D01*
X128209Y92426D01*
X127470Y92795D01*
X125256D01*
X124518Y92426D01*
X124148Y91688D01*
Y90950D01*
X124518Y90212D01*
X125256Y89843D01*
X127470D01*
X128209Y90212D01*
X124518Y92426D01*
X128578Y97594D02*
X124148D01*
X127101Y95748D01*
Y98701D01*
X128209Y102023D02*
X128578Y102761D01*
Y103499D01*
X128209Y104237D01*
X127470Y104606D01*
X125256D01*
X124518Y104237D01*
X124148Y103499D01*
Y102761D01*
X124518Y102023D01*
X125256Y101654D01*
X127470D01*
X128209Y102023D01*
X124518Y104237D01*
X155098Y27598D02*
G75*
G03*
Y32008I0J2205D01*
G01*
G75*
G03*
Y27598I0J-2205D01*
G01*
G36*
X155098Y27598D02*
G75*
G03*
Y32008I0J2205D01*
G01*
G75*
G03*
Y27598I0J-2205D01*
G01*
G37*
X160848Y49255D02*
X161161Y49567D01*
Y49880D01*
X160848Y50192D01*
X160223Y50348D01*
X158348D01*
X157723Y50192D01*
X157411Y49880D01*
Y49567D01*
X157723Y49255D01*
X158348Y49098D01*
X160223D01*
X160848Y49255D01*
X157723Y50192D01*
X161161Y59411D02*
Y60036D01*
Y59724D02*
X157411D01*
X158036Y59411D01*
X161161Y70348D02*
Y69098D01*
X158973Y70192D01*
X158348Y70348D01*
X157723Y70192D01*
X157411Y69880D01*
Y69411D01*
X157723Y69098D01*
X160848Y79255D02*
X161161Y79567D01*
Y79880D01*
X160848Y80192D01*
X160223Y80348D01*
X159598Y80192D01*
X159286Y79880D01*
Y79567D01*
Y79880D02*
X158973Y80192D01*
X158348Y80348D01*
X157723Y80192D01*
X157411Y79880D01*
Y79567D01*
X157723Y79255D01*
X161161Y89880D02*
X157411D01*
X159911Y89098D01*
Y90348D01*
X160848Y99098D02*
X161161Y99411D01*
Y99880D01*
X160848Y100192D01*
X160223Y100348D01*
X159911D01*
X159286Y100192D01*
X158973Y99880D01*
Y99098D01*
X157411D01*
Y100348D01*
X160223Y109098D02*
X159598Y109255D01*
X159286Y109567D01*
Y109880D01*
X159598Y110192D01*
X160223Y110348D01*
X160848Y110192D01*
X161161Y109880D01*
Y109567D01*
X160848Y109255D01*
X160223Y109098D01*
X159286D01*
X158348Y109255D01*
X157723Y109567D01*
X157411Y109880D01*
X196869Y122953D02*
Y111472D01*
X43326D01*
Y123072D01*
G75*
G02*
X53385Y133132I10060J0D01*
G01*
X186689D01*
G75*
G02*
X196869Y122953I0J-10180D01*
G01*
D02*
D26*
X162598Y37248D02*
X190898D01*
X162598Y37748D02*
X190898D01*
X162598Y38248D02*
X190898D01*
X162598Y39048D02*
X190898D01*
X162598Y39548D02*
X190898D01*
X162598Y40048D02*
X166398D01*
X162598Y40548D02*
X165498D01*
X162598Y41048D02*
X165198D01*
X162598Y41548D02*
X165198D01*
X162598Y42048D02*
X165298D01*
X162598Y42548D02*
X165498D01*
X162598Y42848D02*
X165898D01*
X162598Y43348D02*
X171598D01*
X162598Y43848D02*
X171298D01*
X162598Y44348D02*
X190898D01*
X162598Y44848D02*
X190898D01*
X162598Y45348D02*
X190898D01*
X162598Y45848D02*
X165598Y45849D01*
X162598Y46348D02*
X165598Y46349D01*
X162598Y46648D02*
X165598Y46648D01*
X162598Y47148D02*
X165598Y47148D01*
X162598Y47648D02*
X165598D01*
X162598Y48148D02*
X165098D01*
X162598Y48648D02*
X165598D01*
X162598Y49148D02*
X165698Y49149D01*
X162598Y49648D02*
X190898D01*
X162598Y50148D02*
X173798Y50148D01*
X162598Y50448D02*
X173098D01*
X162598Y50948D02*
X170598D01*
X162598Y51448D02*
X165298D01*
X162598Y51948D02*
X165298D01*
X162598Y52448D02*
X165298D01*
X162598Y52948D02*
X165298D01*
X162598Y53448D02*
X164998D01*
X162598Y53948D02*
X166798D01*
X162598Y54748D02*
X165198D01*
X162598Y55248D02*
X190898D01*
X162598Y55748D02*
X190898D01*
X162598Y56248D02*
X190898D01*
X162598Y56748D02*
X190898D01*
X162598Y57248D02*
X190898D01*
X162598Y57748D02*
X190898D01*
X162598Y58548D02*
X190898D01*
X162598Y59048D02*
X190898D01*
X162598Y59548D02*
X190898D01*
X162598Y60048D02*
X190898D01*
X162598Y60548D02*
X190898D01*
X162598Y61048D02*
X190898D01*
X162598Y61548D02*
X190898D01*
X162598Y62048D02*
X190898D01*
X162598Y62348D02*
X190898D01*
X162598Y62848D02*
X190898D01*
X162598Y63348D02*
X190898D01*
X162598Y63848D02*
X190898D01*
X162598Y64348D02*
X190898D01*
X162598Y64848D02*
X190898D01*
X162598Y65348D02*
X190898D01*
X162598Y37348D02*
X190898Y37348D01*
X162598Y37448D02*
X190898D01*
X162598Y37548D02*
X190898Y37549D01*
X162598Y37648D02*
X190898D01*
X162598Y37848D02*
X190899D01*
X162598Y37948D02*
X190898D01*
X162598Y38048D02*
X190898Y38048D01*
X162598Y38148D02*
X190898D01*
X162598Y38348D02*
X190899D01*
X162598Y38448D02*
X190898Y38448D01*
X162598Y38548D02*
X190898Y38548D01*
X162598Y38648D02*
X190898D01*
X162598Y38748D02*
X190898D01*
X162598Y38848D02*
X190899D01*
X162598Y38948D02*
X190898Y38948D01*
X162598Y39148D02*
X190898D01*
X162598Y39248D02*
X190898D01*
X162598Y39348D02*
X190899D01*
X162598Y39448D02*
X190898Y39448D01*
X162598Y39648D02*
X190898Y39649D01*
X162598Y39748D02*
X190898D01*
X162598Y39848D02*
X190899D01*
X162598Y39948D02*
X190898Y39948D01*
X162598Y40148D02*
X165998Y40149D01*
X162598Y40248D02*
X165798D01*
X162598Y40348D02*
X165598Y40349D01*
X162598Y40448D02*
X165498Y40448D01*
X162598Y40648D02*
X165398D01*
X162598Y40748D02*
X165298D01*
X162598Y40848D02*
X165298Y40848D01*
X162598Y40948D02*
X165298D01*
X162598Y41148D02*
X165198D01*
X162598Y41248D02*
X165199D01*
X162598Y41348D02*
X165198D01*
X162598Y41448D02*
X165198D01*
X162598Y41648D02*
X165198D01*
X162598Y41748D02*
X165199D01*
X162598Y41848D02*
X165198Y41848D01*
X162598Y41948D02*
X165198D01*
X162598Y42148D02*
X165298D01*
X162598Y42248D02*
X165298D01*
X162598Y42348D02*
X165398Y42348D01*
X162598Y42448D02*
X165498D01*
X162598Y42648D02*
X165598D01*
X162598Y42748D02*
X165798D01*
X162598Y42948D02*
X166198D01*
X162598Y43048D02*
X171598D01*
X162598Y43148D02*
X171598D01*
X162598Y43248D02*
X171598Y43248D01*
X162598Y43448D02*
X171598D01*
X162598Y43548D02*
X171298Y43548D01*
X162598Y43648D02*
X171298D01*
X162598Y43748D02*
X171298Y43749D01*
X162598Y43948D02*
X171298Y43949D01*
X162598Y44048D02*
X190898D01*
X162598Y44148D02*
X190899D01*
X162598Y44248D02*
X190898D01*
X162598Y44448D02*
X190898Y44448D01*
X162598Y44548D02*
X190898D01*
X162598Y44648D02*
X190898Y44649D01*
X162598Y44748D02*
X190898D01*
X162598Y44948D02*
X190898Y44948D01*
X162598Y45048D02*
X190898D01*
X162598Y45148D02*
X190898Y45149D01*
X162598Y45248D02*
X190898D01*
X162598Y45448D02*
X190899D01*
X162598Y45548D02*
X167998Y45549D01*
X162598Y45648D02*
X165598Y45649D01*
X162598Y45748D02*
X165598D01*
X162598Y45948D02*
X165598Y45948D01*
X162598Y46048D02*
X165598D01*
X162598Y46148D02*
X165598D01*
X162598Y46248D02*
X165598D01*
X162598Y46448D02*
X165598Y46448D01*
X162598Y46548D02*
X165598D01*
X162598Y46748D02*
X165598D01*
X162598Y46848D02*
X165598D01*
X162598Y46948D02*
X165598D01*
X162598Y47048D02*
X165598D01*
X162598Y47248D02*
X165598D01*
X162598Y47348D02*
X165598D01*
X162598Y47448D02*
X165598Y47449D01*
X162598Y47548D02*
X165598D01*
X162598Y47748D02*
X165098D01*
X162598Y47848D02*
X165098D01*
X162598Y47948D02*
X165098Y47949D01*
X162598Y48048D02*
X165098D01*
X162598Y48248D02*
X165098Y48248D01*
X162598Y48348D02*
X165598D01*
X162598Y48448D02*
X165598Y48449D01*
X162598Y48548D02*
X165598D01*
X162598Y48748D02*
X165598Y48748D01*
X162598Y48848D02*
X165598D01*
X162598Y48948D02*
X165598Y48949D01*
X162598Y49048D02*
X165598D01*
X162598Y49248D02*
X165698D01*
X162598Y49348D02*
X165798D01*
X162598Y49448D02*
X166098Y49449D01*
X162598Y49548D02*
X179698D01*
X162598Y49748D02*
X190899D01*
X162598Y49848D02*
X190898Y49848D01*
X162598Y49948D02*
X190898Y49948D01*
X162598Y50048D02*
X190898D01*
X162598Y50248D02*
X173398D01*
X162598Y50348D02*
X173198D01*
X162598Y50548D02*
X173098D01*
X162598Y50648D02*
X172998D01*
X162598Y50748D02*
X172998D01*
X162598Y50848D02*
X172998D01*
X162598Y51048D02*
X165298D01*
X162598Y51148D02*
X165298D01*
X162598Y51248D02*
X165298D01*
X162598Y51348D02*
X165298D01*
X162598Y51548D02*
X165298D01*
X162598Y51648D02*
X165298D01*
X162598Y51748D02*
X165298Y51748D01*
X162598Y51848D02*
X165298D01*
X162598Y52048D02*
X165298D01*
X162598Y52148D02*
X165298D01*
X162598Y52248D02*
X165298D01*
X162598Y52348D02*
X165298D01*
X162598Y52548D02*
X165298D01*
X162598Y52648D02*
X165298D01*
X162598Y52748D02*
X165298Y52748D01*
X162598Y52848D02*
X165298D01*
X162598Y53048D02*
X165298D01*
X162598Y53148D02*
X164998D01*
X162598Y53248D02*
X164998Y53248D01*
X162598Y53348D02*
X164998D01*
X162598Y53548D02*
X164998D01*
X162598Y53648D02*
X164998Y53648D01*
X162598Y53748D02*
X166798Y53748D01*
X162598Y53848D02*
X166798D01*
X162598Y54048D02*
X166798D01*
X162598Y54148D02*
X165398D01*
X162598Y54248D02*
X165298Y54248D01*
X162598Y54348D02*
X165198D01*
X162598Y54448D02*
X165198Y54448D01*
X162598Y54548D02*
X165198D01*
X162598Y54648D02*
X165198Y54649D01*
X162598Y54848D02*
X165298D01*
X162598Y54948D02*
X165398D01*
X162598Y55048D02*
X190899D01*
X162598Y55148D02*
X190898Y55148D01*
X162598Y55348D02*
X190898Y55349D01*
X162598Y55448D02*
X190898D01*
X162598Y55548D02*
X190899D01*
X162598Y55648D02*
X190898Y55648D01*
X162598Y55848D02*
X190898Y55848D01*
X162598Y55948D02*
X190898D01*
X162598Y56048D02*
X190899D01*
X162598Y56148D02*
X190898D01*
X162598Y56348D02*
X190898Y56348D01*
X162598Y56448D02*
X190898D01*
X162598Y56548D02*
X190898Y56549D01*
X162598Y56648D02*
X190898D01*
X162598Y56848D02*
X190898Y56848D01*
X162598Y56948D02*
X190898D01*
X162598Y57048D02*
X190898Y57049D01*
X162598Y57148D02*
X190898D01*
X162598Y57348D02*
X190899D01*
X162598Y57448D02*
X190898D01*
X162598Y57548D02*
X190898Y57548D01*
X162598Y57648D02*
X190898D01*
X162598Y57848D02*
X190899D01*
X162598Y57948D02*
X190898Y57948D01*
X162598Y58048D02*
X190898Y58048D01*
X162598Y58148D02*
X190898D01*
X162598Y58248D02*
X190898D01*
X162598Y58348D02*
X190899D01*
X162598Y58448D02*
X190898Y58448D01*
X162598Y58648D02*
X190898D01*
X162598Y58748D02*
X190898D01*
X162598Y58848D02*
X190899D01*
X162598Y58948D02*
X190898Y58948D01*
X162598Y59148D02*
X190898Y59149D01*
X162598Y59248D02*
X190898D01*
X162598Y59348D02*
X190899D01*
X162598Y59448D02*
X190898Y59448D01*
X162598Y59648D02*
X190898Y59648D01*
X162598Y59748D02*
X190898D01*
X162598Y59848D02*
X190899D01*
X162598Y59948D02*
X190898D01*
X162598Y60148D02*
X190898Y60148D01*
X162598Y60248D02*
X190898D01*
X162598Y60348D02*
X190898Y60349D01*
X162598Y60448D02*
X190898D01*
X162598Y60648D02*
X190898Y60648D01*
X162598Y60748D02*
X190898D01*
X162598Y60848D02*
X190898Y60849D01*
X162598Y60948D02*
X190898D01*
X162598Y61148D02*
X190899D01*
X162598Y61248D02*
X190898D01*
X162598Y61348D02*
X190898Y61349D01*
X162598Y61448D02*
X190898D01*
X162598Y61648D02*
X190899D01*
X162598Y61748D02*
X190898Y61748D01*
X162598Y61848D02*
X190898Y61848D01*
X162598Y61948D02*
X190898D01*
X162598Y62148D02*
X190899D01*
X162598Y62248D02*
X190898Y62248D01*
X162598Y62448D02*
X190898D01*
X162598Y62548D02*
X190898D01*
X162598Y62648D02*
X190899D01*
X162598Y62748D02*
X190898Y62748D01*
X162598Y62948D02*
X190898Y62949D01*
X162598Y63048D02*
X190898D01*
X162598Y63148D02*
X190899D01*
X162598Y63248D02*
X190898Y63248D01*
X162598Y63448D02*
X190898D01*
X162598Y63548D02*
X190898D01*
X162598Y63648D02*
X190899D01*
X162598Y63748D02*
X190898D01*
X162598Y63948D02*
X190898Y63948D01*
X162598Y64048D02*
X190898D01*
X162598Y64148D02*
X190898Y64149D01*
X162598Y64248D02*
X190898D01*
X162598Y64448D02*
X190898Y64448D01*
X162598Y64548D02*
X190898D01*
X162598Y64648D02*
X190898Y64649D01*
X162598Y64748D02*
X190898D01*
X162598Y64948D02*
X190899D01*
X162598Y65048D02*
X190898D01*
X162598Y65148D02*
X190898Y65149D01*
X162598Y65248D02*
X190898D01*
X162598Y65448D02*
X190899D01*
X166098Y41349D02*
X168498Y41348D01*
X166098Y41448D02*
X168598D01*
X166098Y41248D02*
X168398D01*
X166098Y41548D02*
X168698D01*
X166098Y41648D02*
X168898Y41648D01*
X166098Y41748D02*
X169098D01*
X166098Y54148D02*
X166798D01*
X166098Y54948D02*
X190898D01*
X166198Y51448D02*
X166798D01*
X166198Y51948D02*
X166798D01*
X166198Y52448D02*
X166798D01*
X166198Y54748D02*
X166498D01*
X166198Y40948D02*
X167198D01*
X166198Y41049D02*
X167198Y41048D01*
X166198Y41148D02*
X167198D01*
X166198Y41848D02*
X167198Y41848D01*
X166198Y41948D02*
X167198D01*
X166198Y42048D02*
X167198Y42048D01*
X166198Y51048D02*
X166798D01*
X166198Y51248D02*
X166798D01*
X166198Y51349D02*
X166798Y51348D01*
X166198Y51548D02*
X166798D01*
X166198Y51748D02*
X166798Y51748D01*
X166198Y51848D02*
X166798D01*
X166198Y52048D02*
X166798D01*
X166198Y52248D02*
X166798Y52248D01*
X166198Y52348D02*
X166798D01*
X166198Y52548D02*
X166798D01*
X166198Y52748D02*
X166798Y52748D01*
X166198Y52848D02*
X166798D01*
X166198Y52949D02*
X166798Y52948D01*
X166198Y53048D02*
X166798D01*
X166198Y53248D02*
X166798Y53248D01*
X166198Y53348D02*
X166798D01*
X166198Y53449D02*
X166798Y53448D01*
X166198Y53548D02*
X166798D01*
X166198Y54248D02*
X166798Y54248D01*
X166198Y54348D02*
X166498Y54349D01*
X166198Y54848D02*
X166498Y54849D01*
X166199Y51148D02*
X166798D01*
X166199Y51648D02*
X166798D01*
X166199Y52148D02*
X166798D01*
X166199Y52648D02*
X166798D01*
X166199Y53148D02*
X166798D01*
X166199Y53648D02*
X166798D01*
X166199Y54648D02*
X166498Y54649D01*
X166298Y42148D02*
X167099D01*
X166298Y40848D02*
X167098Y40849D01*
X166298Y42248D02*
X167098D01*
X166298Y54448D02*
X166498Y54448D01*
X166298Y54548D02*
X166498D01*
X166398Y40748D02*
X166998D01*
X166498Y48348D02*
X171898D01*
X166498Y42348D02*
X166898Y42348D01*
X166498Y45648D02*
X167798D01*
X166498Y45748D02*
X167698Y45748D01*
X166498Y45848D02*
X167598D01*
X166498Y46048D02*
X167498Y46049D01*
X166498Y46148D02*
X167498D01*
X166498Y46248D02*
X167498Y46248D01*
X166498Y46549D02*
X167498D01*
X166498Y46648D02*
X167498D01*
X166498Y46948D02*
X167498D01*
X166498Y47049D02*
X167498D01*
X166498Y47148D02*
X167498D01*
X166498Y47348D02*
X167498D01*
X166498Y47448D02*
X167498D01*
X166498Y47549D02*
X167498D01*
X166498Y47648D02*
X167498D01*
X166498Y48448D02*
X177598Y48448D01*
X166498Y48648D02*
X177598D01*
X166498Y48848D02*
X177599D01*
X166498Y45948D02*
X167599D01*
X166498Y46348D02*
X167498D01*
X166498Y46448D02*
X167498D01*
X166498Y46749D02*
X167498Y46748D01*
X166498Y46848D02*
X167498D01*
X166498Y47249D02*
X167498Y47248D01*
X166498Y48548D02*
X177598Y48548D01*
X166498Y48748D02*
X177598D01*
X166598Y40648D02*
X166898Y40648D01*
X166998Y40048D02*
X169098D01*
X167098Y48048D02*
X167198D01*
X167098Y48949D02*
X177598Y48948D01*
X167098Y49048D02*
X177598D01*
X167098Y49449D02*
X179598Y49448D01*
X167098Y47748D02*
X167198D01*
X167098Y47848D02*
X167198D01*
X167098Y48148D02*
X167198D01*
X167098Y48248D02*
X167198Y48248D01*
X167098Y49148D02*
X177598Y49149D01*
X167098Y49248D02*
X179499Y49248D01*
X167098Y49348D02*
X179498D01*
X167099Y47948D02*
X167198Y47948D01*
X167198Y42948D02*
X169198D01*
X167398Y40148D02*
X168698Y40148D01*
X167498Y42848D02*
X168898Y42848D01*
X167498Y40248D02*
X168598Y40248D01*
X167598Y42748D02*
X168698Y42748D01*
X167698Y40348D02*
X168498Y40348D01*
X167698Y51148D02*
X168298D01*
X167698Y51448D02*
X168298D01*
X167698Y51648D02*
X168298D01*
X167698Y51748D02*
X168298D01*
X167698Y51948D02*
X168298D01*
X167698Y52148D02*
X168298D01*
X167698Y52248D02*
X168298D01*
X167698Y52448D02*
X168298D01*
X167698Y52648D02*
X168298D01*
X167698Y52748D02*
X168298D01*
X167698Y52948D02*
X168298D01*
X167698Y53248D02*
X168298D01*
X167698Y53448D02*
X168298D01*
X167698Y53748D02*
X168298D01*
X167698Y53948D02*
X168298D01*
X167698Y54248D02*
X168298D01*
X167698Y54448D02*
X167998Y54448D01*
X167698Y54748D02*
X167998D01*
X167698Y51048D02*
X168298D01*
X167698Y51248D02*
X168298D01*
X167698Y51348D02*
X168298Y51348D01*
X167698Y51548D02*
X168298D01*
X167698Y51848D02*
X168298Y51848D01*
X167698Y52048D02*
X168298D01*
X167698Y52348D02*
X168298D01*
X167698Y52548D02*
X168298D01*
X167698Y52848D02*
X168298D01*
X167698Y53048D02*
X168298D01*
X167698Y53148D02*
X168298D01*
X167698Y53348D02*
X168298D01*
X167698Y53548D02*
X168298D01*
X167698Y53648D02*
X168298Y53648D01*
X167698Y53848D02*
X168298D01*
X167698Y54048D02*
X168298D01*
X167698Y54148D02*
X168298Y54148D01*
X167698Y54348D02*
X167998D01*
X167698Y54548D02*
X167998D01*
X167698Y54648D02*
X167998Y54649D01*
X167698Y54848D02*
X167998D01*
X167798Y40448D02*
X168398D01*
X167798Y40548D02*
X168398Y40548D01*
X167798Y42648D02*
X168599D01*
X167898Y40748D02*
X168298D01*
X167898Y42448D02*
X168398D01*
X167898Y40648D02*
X168398D01*
X167898Y42549D02*
X168498Y42548D01*
X167998Y40848D02*
X168298D01*
X167998Y41048D02*
X168398Y41049D01*
X167998Y41848D02*
X169398Y41849D01*
X167998Y42249D02*
X168398Y42248D01*
X167998Y42348D02*
X168398Y42348D01*
X167998Y40948D02*
X168298Y40948D01*
X167998Y41148D02*
X168398Y41148D01*
X167998Y41948D02*
X168398D01*
X167998Y42048D02*
X168398Y42049D01*
X167998Y42148D02*
X168398D01*
Y46448D02*
X169298D01*
X168398Y46248D02*
X169198D01*
X168398Y46548D02*
X169298D01*
X168398Y46748D02*
X169298D01*
X168398Y46948D02*
X169298D01*
X168398Y47048D02*
X169298D01*
X168398Y47148D02*
X169298Y47148D01*
X168398Y47248D02*
X169298D01*
X168398Y47448D02*
X169298D01*
X168398Y47548D02*
X169298Y47549D01*
X168398Y47648D02*
X169298Y47648D01*
X168398Y47748D02*
X169298Y47749D01*
X168398Y47948D02*
X169298D01*
X168398Y48048D02*
X169298Y48048D01*
X168398Y48148D02*
X169298Y48148D01*
X168398Y46349D02*
X169298Y46348D01*
X168398Y46648D02*
X169298Y46648D01*
X168398Y46848D02*
X169298D01*
X168398Y47348D02*
X169298D01*
X168398Y47848D02*
X169298D01*
X168398Y48248D02*
X169298Y48249D01*
X168498Y46148D02*
X168998D01*
X168598Y46048D02*
X168798Y46048D01*
X169198Y51148D02*
X170098D01*
X169198Y51448D02*
X169898D01*
X169198Y51948D02*
X169698D01*
X169198Y52448D02*
X169698D01*
X169198Y52948D02*
X169798D01*
X169198Y53248D02*
X169898Y53249D01*
X169198Y53448D02*
X170098D01*
X169198Y53748D02*
X170598D01*
X169198Y53948D02*
X179498D01*
X169198Y54248D02*
X179498D01*
X169198Y54448D02*
X179198D01*
X169198Y54748D02*
X179198D01*
X169198Y41948D02*
X169898D01*
X169198Y45548D02*
X174798D01*
X169198Y51048D02*
X170298Y51049D01*
X169198Y51248D02*
X169998D01*
X169198Y51348D02*
X169898D01*
X169198Y51548D02*
X169798Y51549D01*
X169198Y51648D02*
X169798D01*
X169198Y51748D02*
X169698D01*
X169198Y51848D02*
X169698D01*
X169198Y52048D02*
X169698D01*
X169198Y52148D02*
X169698D01*
X169198Y52248D02*
X169698D01*
X169198Y52348D02*
X169698D01*
X169198Y52548D02*
X169698D01*
X169198Y52648D02*
X169698D01*
X169198Y52748D02*
X169698D01*
X169198Y52848D02*
X169698D01*
X169198Y53048D02*
X169798D01*
X169198Y53148D02*
X169798D01*
X169198Y53348D02*
X169998D01*
X169198Y53548D02*
X170198D01*
X169198Y53648D02*
X170298D01*
X169198Y53848D02*
X179498D01*
X169198Y54048D02*
X179499D01*
X169198Y54148D02*
X179498Y54148D01*
X169198Y54348D02*
X179198D01*
X169198Y54548D02*
X179198D01*
X169198Y54648D02*
X179198Y54648D01*
X169198Y54848D02*
X179198D01*
X169298Y40748D02*
X169898D01*
X169298Y40848D02*
X169998Y40848D01*
X169298Y40948D02*
X170098Y40948D01*
X169298Y41048D02*
X170198D01*
X169298Y42048D02*
X170198Y42048D01*
X169298Y42148D02*
X170098D01*
X169398Y42248D02*
X170098Y42248D01*
X169398Y45649D02*
X169398Y40648D02*
X169598Y40648D01*
X169398Y41148D02*
X170198Y41148D01*
X169498Y42348D02*
X169898Y42348D01*
X169598Y40048D02*
X190898D01*
X169598Y41248D02*
X170198D01*
X169898Y41349D02*
X170198Y41348D01*
X169998Y40148D02*
X190898Y40148D01*
X170198Y45848D02*
X170798D01*
X170198Y46348D02*
X170798Y46348D01*
X170198Y46648D02*
X170798D01*
X170198Y47148D02*
X170798D01*
X170198Y47648D02*
X170798D01*
X170198Y48148D02*
X170498D01*
X170198Y40248D02*
X170298D01*
X170198Y42948D02*
X171598D01*
X170198Y45648D02*
X170798Y45648D01*
X170198Y45748D02*
X170798Y45748D01*
X170198Y45948D02*
X170798D01*
X170198Y46048D02*
X170798Y46049D01*
X170198Y46148D02*
X170798Y46148D01*
X170198Y46248D02*
X170798D01*
X170198Y46448D02*
X170798D01*
X170198Y46548D02*
X170798Y46549D01*
X170198Y46748D02*
X170798D01*
X170198Y46848D02*
X170798Y46848D01*
X170198Y46948D02*
X170798D01*
X170198Y47048D02*
X170798Y47049D01*
X170198Y47248D02*
X170798Y47249D01*
X170198Y47348D02*
X170798Y47348D01*
X170198Y47448D02*
X170798D01*
X170198Y47548D02*
X170798Y47549D01*
X170198Y47748D02*
X170498D01*
X170198Y47848D02*
X170499D01*
X170198Y47948D02*
X170498D01*
X170198Y48048D02*
X170498D01*
X170198Y48248D02*
X170498D01*
Y42848D02*
X171598Y42848D01*
X170598Y52048D02*
X173298D01*
X170598Y51948D02*
X171798D01*
X170598Y52148D02*
X173398D01*
X170698Y52948D02*
X171598D01*
X170698Y42748D02*
X171598Y42748D01*
X170698Y51748D02*
X171798D01*
X170698Y51848D02*
X171798Y51848D01*
X170698Y52848D02*
X171598D01*
X170798Y51648D02*
X171698Y51648D01*
X170798Y42648D02*
X171598D01*
X170798Y53048D02*
X171498D01*
X170898Y51548D02*
X171598D01*
X170898Y42548D02*
X171598D01*
X170898Y53148D02*
X171398D01*
X170998Y42348D02*
X171598D01*
X170998Y42248D02*
X171598Y42248D01*
X170998Y42448D02*
X171598D01*
X171098Y40448D02*
X171598D01*
X171098Y40648D02*
X171598D01*
X171098Y40948D02*
X171598D01*
X171098Y41148D02*
X171598D01*
X171098Y41448D02*
X171598D01*
X171098Y41648D02*
X171598D01*
X171098Y41948D02*
X171598D01*
X171098Y40348D02*
X171598D01*
X171098Y40548D02*
X171598D01*
X171098Y40748D02*
X171598D01*
X171098Y40848D02*
X171598D01*
X171098Y41048D02*
X171598D01*
X171098Y41248D02*
X171598D01*
X171098Y41348D02*
X171598D01*
X171098Y41548D02*
X171598D01*
X171098Y41748D02*
X171598D01*
X171098Y41848D02*
X171598D01*
X171098Y42048D02*
X171598D01*
X171098Y42148D02*
X171598D01*
X171098Y53248D02*
X171198D01*
X171198Y40248D02*
X171598D01*
X171598Y48248D02*
X171698Y48248D01*
X171698Y45948D02*
X172598D01*
X171698Y46448D02*
X172598D01*
X171698Y46948D02*
X172598D01*
X171698Y45649D02*
X172598Y45648D01*
X171698Y45748D02*
X172598D01*
X171698Y46048D02*
X172598Y46048D01*
X171698Y46248D02*
X172598D01*
X171698Y46548D02*
X172598D01*
X171698Y46648D02*
X172598Y46648D01*
X171698Y46748D02*
X172598D01*
X171698Y47048D02*
X172598Y47048D01*
X171698Y47148D02*
X172598Y47148D01*
X171698Y47248D02*
X172598D01*
X171698Y47448D02*
X172598D01*
X171698Y45849D02*
X172598Y45848D01*
X171698Y46148D02*
X172598Y46148D01*
X171698Y46349D02*
X172598Y46348D01*
X171698Y46848D02*
X172598D01*
X171698Y47348D02*
X172598D01*
X171698Y53748D02*
X173698D01*
X171798Y47549D02*
X172598Y47548D01*
X171798Y50948D02*
X172998D01*
X171898Y47648D02*
X172598D01*
X171998Y47748D02*
X172498D01*
X171998Y51048D02*
X172998D01*
X171998Y53648D02*
X173498D01*
X172098Y53548D02*
X173298D01*
X172198Y51148D02*
X173098D01*
X172198Y53449D02*
X173298D01*
X172298Y51248D02*
X173098D01*
X172298Y53348D02*
X173198D01*
X172398Y51348D02*
X173298Y51349D01*
X172399Y53248D02*
X173098Y53248D01*
X172498Y40248D02*
X173098D01*
X172498Y40548D02*
X173098D01*
X172498Y40848D02*
X173098D01*
X172498Y41048D02*
X173098D01*
X172498Y41348D02*
X173098D01*
X172498Y41548D02*
X173098D01*
X172498Y41848D02*
X173098D01*
X172498Y42048D02*
X173098Y42048D01*
X172498Y42348D02*
X173098D01*
X172498Y42548D02*
X173098D01*
X172498Y42848D02*
X173098D01*
X172498Y43048D02*
X173098D01*
X172498Y43348D02*
X173098D01*
X172498Y43548D02*
X172798Y43548D01*
X172498Y43848D02*
X172798D01*
X172498Y51448D02*
X173298D01*
X172498Y51648D02*
X173198D01*
X172498Y52948D02*
X173098D01*
X172498Y40348D02*
X173098Y40348D01*
X172498Y40448D02*
X173098Y40448D01*
X172498Y40648D02*
X173098Y40649D01*
X172498Y40748D02*
X173098D01*
X172498Y40948D02*
X173098Y40948D01*
X172498Y41148D02*
X173098D01*
X172498Y41248D02*
X173098D01*
X172498Y41448D02*
X173098D01*
X172498Y41648D02*
X173098D01*
X172498Y41748D02*
X173097D01*
X172498Y41948D02*
X173098D01*
X172498Y42148D02*
X173098D01*
X172498Y42248D02*
X173098D01*
X172498Y42448D02*
X173098D01*
X172498Y42648D02*
X173098D01*
X172498Y42748D02*
X173098D01*
X172498Y42948D02*
X173098D01*
X172498Y43148D02*
X173098D01*
X172498Y43248D02*
X173098D01*
X172498Y43448D02*
X173098D01*
X172498Y43648D02*
X172798D01*
X172498Y43748D02*
X172798Y43749D01*
X172498Y43948D02*
X172798D01*
X172498Y51548D02*
X173198D01*
X172498Y53048D02*
X173098D01*
X172498Y53148D02*
X173098D01*
X172598Y52848D02*
X173098Y52848D01*
X172598Y51748D02*
X173198Y51749D01*
X172598Y51848D02*
X173198Y51848D01*
X172598Y51948D02*
X173198D01*
X172598Y52248D02*
X173398D01*
X172598Y52348D02*
X173298Y52348D01*
X172598Y52448D02*
X173198D01*
X172598Y52548D02*
X173098D01*
X172598Y52648D02*
X173098D01*
X172598Y52748D02*
X173098D01*
X172998Y48348D02*
X174998D01*
X173198Y48248D02*
X174698Y48248D01*
X173298Y48148D02*
X174498D01*
X173398Y48048D02*
X174398D01*
X173398Y47948D02*
X174298Y47948D01*
X173498Y45848D02*
X174398D01*
X173498Y46148D02*
X174198Y46148D01*
X173498Y46348D02*
X174098Y46348D01*
X173498Y46648D02*
X173998D01*
X173498Y46848D02*
X173998D01*
X173498Y47148D02*
X173998D01*
X173498Y47648D02*
X174098D01*
X173498Y45648D02*
X174598Y45648D01*
X173498Y45748D02*
X174498D01*
X173498Y45948D02*
X174298D01*
X173498Y46048D02*
X174198Y46048D01*
X173498Y46248D02*
X174098Y46248D01*
X173498Y46448D02*
X174098D01*
X173498Y46548D02*
X173998D01*
X173498Y46748D02*
X173998D01*
X173498Y46948D02*
X173998D01*
X173498Y47048D02*
X173998D01*
X173498Y47248D02*
X173998D01*
X173498Y47348D02*
X173998D01*
X173498Y47448D02*
X174098D01*
X173498Y47548D02*
X174098Y47549D01*
X173498Y47748D02*
X174198D01*
X173498Y47848D02*
X174198D01*
X173898Y50848D02*
X174998D01*
X173898Y51048D02*
X174898D01*
X173898Y50948D02*
X174998Y50948D01*
X173998Y40548D02*
X190898D01*
X173998Y41048D02*
X190898D01*
X173998Y41548D02*
X190898D01*
X173998Y42048D02*
X190898D01*
X173998Y42348D02*
X190898D01*
X173998Y42548D02*
X190898D01*
X173998Y42848D02*
X190898D01*
X173998Y43348D02*
X190898D01*
X173998Y43848D02*
X190898D01*
X173998Y52948D02*
X174598D01*
X173998Y40248D02*
X190898D01*
X173998Y40348D02*
X190899D01*
X173998Y40448D02*
X190898D01*
X173998Y40648D02*
X190898Y40648D01*
X173998Y40748D02*
X190898D01*
X173998Y40848D02*
X190898Y40849D01*
X173998Y40948D02*
X190898D01*
X173998Y41148D02*
X190898Y41148D01*
X173998Y41248D02*
X190898D01*
X173998Y41348D02*
X190898Y41349D01*
X173998Y41448D02*
X190898D01*
X173998Y41648D02*
X190899D01*
X173998Y41748D02*
X190898D01*
X173998Y41848D02*
X190898Y41849D01*
X173998Y41948D02*
X190898D01*
X173998Y42148D02*
X190899D01*
X173998Y42248D02*
X190898Y42248D01*
X173998Y42448D02*
X190898D01*
X173998Y42648D02*
X190899D01*
X173998Y42748D02*
X190898Y42748D01*
X173998Y42948D02*
X190898D01*
X173998Y43048D02*
X190898D01*
X173998Y43148D02*
X190899D01*
X173998Y43248D02*
X190898Y43248D01*
X173998Y43448D02*
X190898Y43449D01*
X173998Y43548D02*
X190898D01*
X173998Y43648D02*
X190899D01*
X173998Y43748D02*
X190898Y43748D01*
X173998Y43948D02*
X190898D01*
X173998Y51148D02*
X174498D01*
X173998Y52748D02*
X174598Y52748D01*
X173998Y52848D02*
X174598Y52848D01*
X173998Y53048D02*
X174598D01*
X174098Y52648D02*
X174498D01*
X174098Y50748D02*
X174798D01*
X174098Y51948D02*
X176198D01*
X174098Y53148D02*
X174498D01*
X174298Y53248D02*
X174598Y51848D02*
X176198D01*
X174798Y52048D02*
X176298D01*
X174898Y46748D02*
X177598D01*
X174898Y46848D02*
X177598Y46848D01*
X174898Y46948D02*
X177598D01*
X174898Y47048D02*
X177598Y47049D01*
X174898Y47148D02*
X177598D01*
X174898Y53748D02*
X175298D01*
X174997Y47448D02*
X175998D01*
X174998Y46448D02*
X175998D01*
X174998Y46548D02*
X175998D01*
X174998Y46648D02*
X176098Y46648D01*
X174998Y47248D02*
X175998D01*
X174998Y47348D02*
X175998D01*
X174998Y50149D02*
X190898Y50148D01*
X175098Y47549D02*
X175998Y47548D01*
X175098Y47648D02*
X175898D01*
X175098Y52148D02*
X176298D01*
X175098Y53649D02*
X175198Y53648D01*
X175098Y46248D02*
X175898D01*
X175098Y46348D02*
X175998Y46349D01*
X175198Y52249D02*
X176398Y52248D01*
X175198Y46148D02*
X175798D01*
X175298Y51748D02*
X176199Y51748D01*
X175298Y47748D02*
X175798D01*
X175298Y52348D02*
X176498D01*
X175398Y52548D02*
X176798D01*
X175398Y46048D02*
X175598Y46049D01*
X175398Y50248D02*
X190899D01*
X175398Y52448D02*
X176698D01*
X175498Y53048D02*
X176298D01*
X175498Y52648D02*
X177099D01*
X175498Y52748D02*
X176298D01*
X175498Y52848D02*
X176298D01*
X175498Y52948D02*
X176298D01*
X175498Y51648D02*
X176198D01*
X175598Y50349D02*
X190898Y50348D01*
X175698Y50448D02*
X190898D01*
X175698Y51548D02*
X176198D01*
X175698Y53148D02*
X176298D01*
X175798Y50648D02*
X190898D01*
X175798Y51448D02*
X176198D01*
X175798Y50548D02*
X190898D01*
X175798Y51248D02*
X176298D01*
X175798Y51348D02*
X176298D01*
X175898Y51048D02*
X176498D01*
X175898Y53348D02*
X176398D01*
X175898Y50748D02*
X190899D01*
X175898Y50848D02*
X190898D01*
X175898Y50948D02*
X176698D01*
X175898Y51148D02*
X176398D01*
X175898Y53248D02*
X176298D01*
X175898Y53448D02*
X176398D01*
X175898Y53548D02*
X176598D01*
X175898Y53648D02*
X176698Y53648D01*
X175898Y53748D02*
X176898D01*
X176098Y45549D02*
X181798Y45548D01*
X176098Y48348D02*
X177599Y48348D01*
X176298Y45648D02*
X177898D01*
X176298Y48248D02*
X177098D01*
X176398Y45748D02*
X177698D01*
X176498Y48148D02*
X177098Y48148D01*
X176498Y45849D02*
X177698Y45848D01*
X176598Y45948D02*
X177598D01*
X176598Y48048D02*
X177098Y48048D01*
X176698Y47948D02*
X177098Y47948D01*
X176698Y46048D02*
X177599Y46048D01*
X176698Y46148D02*
X177598Y46148D01*
X176798Y46348D02*
X177598Y46348D01*
X176798Y46648D02*
X177598D01*
X176798Y47348D02*
X177599D01*
X176798Y47648D02*
X177598D01*
X176798Y47848D02*
X177099D01*
X176798Y46248D02*
X177598D01*
X176798Y46448D02*
X177598D01*
X176798Y46548D02*
X177599Y46548D01*
X176798Y47248D02*
X177598D01*
X176798Y47448D02*
X177598D01*
X176798Y47548D02*
X177598Y47549D01*
X176798Y47748D02*
X177098D01*
Y51748D02*
X177898Y51748D01*
X177098Y52748D02*
X177498Y52749D01*
X177098Y52848D02*
X178098D01*
X177198Y51548D02*
X177698D01*
X177198Y51848D02*
X178098D01*
X177198Y53048D02*
X177998Y53048D01*
X177198Y51648D02*
X177798D01*
X177198Y51948D02*
X178098D01*
X177198Y52948D02*
X177998D01*
X177298Y53148D02*
X177898D01*
X177398Y52049D02*
X178098Y52048D01*
X177498Y53249D02*
X177698Y53248D01*
X177599Y52148D02*
X178099D01*
X177798Y50948D02*
X190898D01*
X177998Y51048D02*
X178198D01*
X177998Y52249D02*
X178098Y52248D01*
X178198Y53748D02*
X179498D01*
X178498Y46248D02*
X179598D01*
X178498Y46748D02*
X179598D01*
X178498Y47248D02*
X179598D01*
X178498Y47548D02*
X179598D01*
X178498Y48449D02*
X190898D01*
X178498Y48548D02*
X190898D01*
X178498Y48949D02*
X179498Y48949D01*
X178498Y49048D02*
X179498D01*
X178498Y46348D02*
X179598D01*
X178498Y46548D02*
X179598Y46548D01*
X178498Y46648D02*
X179598D01*
X178498Y46848D02*
X179598D01*
X178498Y47048D02*
X179598Y47048D01*
X178498Y47148D02*
X179598D01*
X178498Y47348D02*
X179598D01*
X178498Y47648D02*
X179598D01*
X178498Y48348D02*
X181899D01*
X178498Y48648D02*
X179798D01*
X178498Y48748D02*
X179598Y48748D01*
X178498Y48848D02*
X179498D01*
X178498Y49148D02*
X179498D01*
X178498Y53648D02*
X179498D01*
X178499Y46448D02*
X179598D01*
X178499Y46948D02*
X179598D01*
X178499Y47448D02*
X179598D01*
X178598Y53548D02*
X179499D01*
X178698Y46148D02*
X179598D01*
X178698Y53448D02*
X179498D01*
X178798Y53348D02*
X179498D01*
X178898Y52948D02*
X179498D01*
X178898Y53148D02*
X179498D01*
X178898Y53248D02*
X179498Y53249D01*
X178898Y53048D02*
X179499D01*
X178998Y51048D02*
X179498Y51049D01*
X178998Y51848D02*
X179498Y51848D01*
X178998Y52249D02*
X179499Y52248D01*
X178998Y52348D02*
X179498D01*
X178998Y52749D02*
X179498Y52749D01*
X178998Y52848D02*
X179498D01*
X178998Y51148D02*
X179498D01*
X178998Y51348D02*
X179498D01*
X178998Y51448D02*
X179498D01*
X178998Y51548D02*
X179498D01*
X178998Y51648D02*
X179498D01*
X178998Y51948D02*
X179498D01*
X178998Y52048D02*
X179498D01*
X178998Y52148D02*
X179498D01*
X178998Y52448D02*
X179498D01*
X178998Y52548D02*
X179498D01*
X178998Y52648D02*
X179498D01*
X178999Y51248D02*
X179499D01*
X178999Y51748D02*
X179499D01*
X179198Y45748D02*
X179598D01*
X179198Y47748D02*
X179298D01*
X179198Y48048D02*
X179298D01*
X179198Y48248D02*
X179298Y48248D01*
X179198Y45648D02*
X179598D01*
X179198Y45848D02*
X179598D01*
X179198Y45948D02*
X179598D01*
X179198Y46048D02*
X179598Y46048D01*
X179198Y47848D02*
X179298D01*
X179198Y47948D02*
X179298D01*
X179198Y48148D02*
X179298D01*
X180198Y48648D02*
X190898D01*
X180298Y49548D02*
X190898D01*
X180398Y49448D02*
X190898Y49449D01*
X180398Y51349D02*
X190898Y51348D01*
X180398Y51448D02*
X190898D01*
X180398Y51948D02*
X190898D01*
X180398Y52448D02*
X190898D01*
X180398Y52948D02*
X190898D01*
X180398Y53248D02*
X190898Y53249D01*
X180398Y53448D02*
X190898D01*
X180398Y53649D02*
X190898Y53648D01*
X180398Y53748D02*
X190898D01*
X180398Y54149D02*
X190898Y54148D01*
X180398Y54248D02*
X190898D01*
X180398Y54649D02*
X190898Y54648D01*
X180398Y54748D02*
X190898D01*
X180398Y48748D02*
X190898Y48748D01*
X180398Y51048D02*
X190898D01*
X180398Y51148D02*
X190898Y51148D01*
X180398Y51248D02*
X190899D01*
X180398Y51548D02*
X190898D01*
X180398Y51648D02*
X190898Y51648D01*
X180398Y51748D02*
X190899D01*
X180398Y51848D02*
X190898Y51848D01*
X180398Y52048D02*
X190898Y52048D01*
X180398Y52248D02*
X190898Y52249D01*
X180398Y52348D02*
X190898D01*
X180398Y52548D02*
X190898Y52548D01*
X180398Y52748D02*
X190898Y52749D01*
X180398Y52848D02*
X190898D01*
X180398Y53048D02*
X190898Y53048D01*
X180398Y53348D02*
X190898D01*
X180398Y53548D02*
X190899D01*
X180398Y53848D02*
X190898D01*
X180398Y53948D02*
X190898Y53948D01*
X180398Y54048D02*
X190899D01*
X180398Y54348D02*
X190898D01*
X180398Y54448D02*
X190898Y54448D01*
X180398Y54548D02*
X190899D01*
X180398Y54848D02*
X190898D01*
X180399Y52148D02*
X190898D01*
X180399Y52648D02*
X190898D01*
X180399Y53148D02*
X190898D01*
X180498Y45748D02*
X181398D01*
X180498Y46048D02*
X181198D01*
X180498Y46248D02*
X181098D01*
X180498Y46548D02*
X180998D01*
X180498Y46748D02*
X180998D01*
X180498Y47048D02*
X180998D01*
X180498Y47248D02*
X180998D01*
X180498Y47548D02*
X181098D01*
X180498Y47748D02*
X181098D01*
X180498Y48048D02*
X181398D01*
X180498Y48848D02*
X190898D01*
X180498Y49048D02*
X190898D01*
X180498Y49348D02*
X190898D01*
X180498Y45848D02*
X181298Y45849D01*
X180498Y46148D02*
X181098D01*
X180498Y46348D02*
X180998D01*
X180498Y46648D02*
X180998D01*
X180498Y46848D02*
X180998D01*
X180498Y47148D02*
X180998D01*
X180498Y47348D02*
X180998D01*
X180498Y47648D02*
X181098D01*
X180498Y47848D02*
X181198D01*
X180498Y48148D02*
X181498D01*
X180498Y49148D02*
X190898D01*
X180499Y45648D02*
X181598D01*
X180499Y45948D02*
X181198D01*
X180499Y46448D02*
X180998D01*
X180499Y46948D02*
X180998D01*
X180499Y47448D02*
X180998D01*
X180499Y47948D02*
X181298Y47949D01*
X180499Y48248D02*
X181598D01*
X180499Y48948D02*
X190898Y48949D01*
X180499Y49248D02*
X190898Y49248D01*
X181898Y47148D02*
X182998D01*
X181898Y46648D02*
X182998Y46648D01*
X181898Y46748D02*
X182998D01*
X181898Y46948D02*
X182998D01*
X181898Y47248D02*
X182998D01*
X181899Y46548D02*
X182998Y46548D01*
X181899Y46848D02*
X182998D01*
X181899Y47048D02*
X182998D01*
X181899Y47348D02*
X182998D01*
X181998Y46448D02*
X182898D01*
X181998Y47548D02*
X182898D01*
X181998Y46348D02*
X182898D01*
X181998Y47448D02*
X182898D01*
X182098Y47648D02*
X182798D01*
X182098Y46248D02*
X182798D01*
X182198Y46148D02*
X182698D01*
X182198Y47749D02*
X182698D01*
X182298Y46048D02*
X182498D01*
X182998Y48348D02*
X185598D01*
X183098Y45548D02*
X190898D01*
X183298Y45649D02*
X184398Y45648D01*
X183298Y48248D02*
X184098Y48248D01*
X183398Y48148D02*
X184098Y48148D01*
X183498Y45748D02*
X184398D01*
X183498Y48048D02*
X184098D01*
X183598Y47948D02*
X184098D01*
X183598Y45849D02*
X184398Y45848D01*
X183698Y46049D02*
X184398Y46048D01*
X183698Y45948D02*
X184398D01*
X183698Y47848D02*
X184098Y47848D01*
X183798Y46248D02*
X184398D01*
X183798Y46148D02*
X184398D01*
X183798Y47648D02*
X184398D01*
X183798Y47748D02*
X184098D01*
X183898Y46348D02*
X184398D01*
X183898Y46648D02*
X184398D01*
X183898Y46848D02*
X184398D01*
X183898Y47148D02*
X184398D01*
X183898Y47348D02*
X184398D01*
X183898Y46448D02*
X184398D01*
X183898Y46548D02*
X184398D01*
X183898Y46748D02*
X184398D01*
X183898Y46948D02*
X184398D01*
X183898Y47048D02*
X184398D01*
X183898Y47248D02*
X184398D01*
X183898Y47448D02*
X184398D01*
X183898Y47548D02*
X184398D01*
X185198Y48148D02*
X185198Y48248D02*
X185298D01*
Y45748D02*
X186298D01*
X185298Y45948D02*
X186298D01*
X185298Y46048D02*
X186298Y46048D01*
X185298Y46248D02*
X186298D01*
X185298Y46448D02*
X186298D01*
X185298Y46548D02*
X186298Y46548D01*
X185298Y46748D02*
X186298D01*
X185298Y46948D02*
X186298D01*
X185298Y47048D02*
X186298D01*
X185298Y47248D02*
X186298D01*
X185298Y45648D02*
X186298D01*
X185298Y45848D02*
X186298D01*
X185298Y46148D02*
X186298D01*
X185298Y46348D02*
X186298D01*
X185298Y46648D02*
X186298D01*
X185298Y46848D02*
X186298D01*
X185298Y47148D02*
X186298D01*
X185298Y47348D02*
X186298D01*
X185298Y47448D02*
X186198D01*
X185398Y47548D02*
X186198Y47549D01*
X185498Y47648D02*
X186198D01*
X185598Y47748D02*
X186098D01*
X186598Y48348D02*
X190898D01*
X186798Y48248D02*
X190898Y48248D01*
X186898Y48148D02*
X190898D01*
X186998Y48048D02*
X190898Y48048D01*
X187098Y45748D02*
X190898D01*
X187098Y46248D02*
X190898D01*
X187098Y46748D02*
X190898D01*
X187098Y45649D02*
X190898D01*
X187098Y45848D02*
X190898D01*
X187098Y46048D02*
X190898D01*
X187098Y46148D02*
X190898D01*
X187098Y46348D02*
X190898D01*
X187098Y46548D02*
X190898D01*
X187098Y46648D02*
X190898D01*
X187098Y46848D02*
X190898D01*
X187098Y47048D02*
X190898D01*
X187098Y47148D02*
X190898D01*
X187098Y47249D02*
X190898Y47248D01*
X187098Y47348D02*
X190898D01*
X187098Y47548D02*
X190898D01*
X187098Y47648D02*
X190898D01*
X187098Y47748D02*
X190898D01*
X187098Y47848D02*
X190898D01*
X187099Y45948D02*
X190899D01*
X187099Y46448D02*
X190899D01*
X187099Y46948D02*
X190899D01*
X187099Y47448D02*
X190899D01*
X187099Y47948D02*
X190899D01*
D02*
D27*
X53337Y123059D02*
Y126996D01*
Y125520D02*
X53830Y126504D01*
X54814Y126996D01*
X55798D01*
X56782Y126504D01*
X57274Y125520D01*
Y123059D01*
X58219Y126504D02*
X59204Y126996D01*
X60680D01*
X61664Y126504D01*
X62156Y125520D01*
Y124044D01*
X61664Y123552D01*
X60680Y123059D01*
X59696D01*
X58711Y123552D01*
X58219Y124044D01*
Y124536D01*
X58711Y125028D01*
X59696Y125520D01*
X60680D01*
X61664Y125028D01*
X62156Y124536D01*
Y124044D02*
Y123059D01*
X63101D02*
Y126996D01*
Y126504D02*
X63593Y126996D01*
X64578D01*
X65070Y126504D01*
Y125028D01*
Y126504D02*
X65562Y126996D01*
X66546D01*
X67038Y126504D01*
Y123059D01*
X71920Y126504D02*
X70936Y126996D01*
X69459D01*
X68475Y126504D01*
X67983Y125520D01*
Y124536D01*
X68475Y123552D01*
X69459Y123059D01*
X70936D01*
X71920Y123552D01*
X72865Y124536D02*
X73357Y123552D01*
X74341Y123059D01*
X75326D01*
X76310Y123552D01*
X76802Y124536D01*
Y125520D01*
X76310Y126504D01*
X75326Y126996D01*
X74341D01*
X73357Y126504D01*
X72865Y125520D01*
Y124536D01*
X81290Y123059D02*
Y126996D01*
Y125520D02*
X81782Y126504D01*
X82767Y126996D01*
X83751D01*
X84735Y126504D01*
X85227Y125520D01*
Y123059D01*
X90109Y123552D02*
X89617Y123059D01*
X88633D01*
X87648D01*
X86664Y123552D01*
X86172Y124536D01*
Y126012D01*
X86664Y126504D01*
X87648Y126996D01*
X88633D01*
X89617Y126504D01*
X90109Y126012D01*
Y125520D01*
X89617Y125028D01*
X88633Y124536D01*
X87648D01*
X86664Y125028D01*
X86172Y125520D01*
X94499D02*
X95975D01*
Y125028D01*
X95483Y124044D01*
X94991Y123552D01*
X94007Y123059D01*
X93022D01*
X92038Y123552D01*
X91546Y124044D01*
X91054Y125028D01*
Y126996D01*
X91546Y127981D01*
X92038Y128473D01*
X93022Y128965D01*
X94007D01*
X94991Y128473D01*
X95483Y127981D01*
X95975Y126996D01*
X100896Y126504D02*
X99912Y126996D01*
X98436D01*
X97452Y126504D01*
X96959Y125520D01*
Y124536D01*
X97452Y123552D01*
X98436Y123059D01*
X99912D01*
X100896Y123552D01*
X101841Y124536D02*
X102333Y123552D01*
X103318Y123059D01*
X104302D01*
X105286Y123552D01*
X105778Y124536D01*
Y125520D01*
X105286Y126504D01*
X104302Y126996D01*
X103318D01*
X102333Y126504D01*
X101841Y125520D01*
Y124536D01*
X106723Y123059D02*
Y126996D01*
Y125520D02*
X107215Y126504D01*
X108200Y126996D01*
X109184D01*
X110168Y126504D01*
X110660Y125520D01*
Y123059D01*
X129322Y128965D02*
Y124536D01*
X129814Y123552D01*
X130798Y123059D01*
X132767D01*
X133751Y123552D01*
X134243Y124536D01*
Y128965D01*
X135227Y124536D02*
X135719Y123552D01*
X136704Y123059D01*
X138672D01*
X139656Y123552D01*
X140148Y124536D01*
X139656Y125520D01*
X138672Y126012D01*
X136704D01*
X135719Y126504D01*
X135227Y127489D01*
X135719Y128473D01*
X136704Y128965D01*
X138672D01*
X139656Y128473D01*
X140148Y127489D01*
X144578Y126012D02*
X145562Y125520D01*
X146054Y124536D01*
X145562Y123552D01*
X144578Y123059D01*
X141133D01*
Y128965D01*
X144578D01*
X145562Y128473D01*
X146054Y127489D01*
X145562Y126504D01*
X144578Y126012D01*
X141133D01*
X150581Y126504D02*
X151566Y126996D01*
X153042D01*
X154026Y126504D01*
X154519Y125520D01*
Y124044D01*
X154026Y123552D01*
X153042Y123059D01*
X152058D01*
X151074Y123552D01*
X150581Y124044D01*
Y124536D01*
X151074Y125028D01*
X152058Y125520D01*
X153042D01*
X154026Y125028D01*
X154519Y124536D01*
Y124044D02*
Y123059D01*
X159400Y125520D02*
X158908Y126504D01*
X157924Y126996D01*
X156940D01*
X155956Y126504D01*
X155463Y125520D01*
Y124536D01*
X155956Y123552D01*
X156940Y123059D01*
X157924D01*
X158908Y123552D01*
X159400Y124536D01*
Y123059D02*
Y128965D01*
X160345Y126504D02*
X161330Y126996D01*
X162806D01*
X163790Y126504D01*
X164282Y125520D01*
Y124044D01*
X163790Y123552D01*
X162806Y123059D01*
X161822D01*
X160837Y123552D01*
X160345Y124044D01*
Y124536D01*
X160837Y125028D01*
X161822Y125520D01*
X162806D01*
X163790Y125028D01*
X164282Y124536D01*
Y124044D02*
Y123059D01*
X165227Y126996D02*
Y121583D01*
Y124536D02*
X165719Y123552D01*
X166704Y123059D01*
X167688D01*
X168672Y123552D01*
X169164Y124536D01*
Y125520D01*
X168672Y126504D01*
X167688Y126996D01*
X166704D01*
X165719Y126504D01*
X165227Y125520D01*
Y124536D01*
X170109Y126996D02*
X172406D01*
X171257Y127981D02*
Y123552D01*
X171750Y123059D01*
X172242D01*
X172734Y123552D01*
X177589D02*
X177097Y123059D01*
X176113D01*
X175129D01*
X174144Y123552D01*
X173652Y124536D01*
Y126012D01*
X174144Y126504D01*
X175129Y126996D01*
X176113D01*
X177097Y126504D01*
X177589Y126012D01*
Y125520D01*
X177097Y125028D01*
X176113Y124536D01*
X175129D01*
X174144Y125028D01*
X173652Y125520D01*
X178534Y123059D02*
Y126996D01*
Y125520D02*
X179026Y126504D01*
X180011Y126996D01*
X180995D01*
X181979Y126504D01*
X0Y0D02*
M02*
